<svg id="american-express" xmlns="http://www.w3.org/2000/svg" width="69.15" height="45" viewBox="0 0 69.15 45">
  <g id="Group_144" data-name="Group 144" transform="translate(0.15)">
    <path id="Path_212" data-name="Path 212" d="M1.1,45h69V0H1.1Z" transform="translate(-1.1)" fill="#306fc5"/>
    <path id="Path_213" data-name="Path 213" d="M47,0h0" transform="translate(21.85)" fill="#306fc5"/>
  </g>
  <path id="Shape_5_" d="M7.3,13.2,5.95,9.75,4.6,13.2Zm29.4-1.35a2.224,2.224,0,0,1-1.05.15h-2.4V10.05h2.4c.3,0,.75,0,.9.15a.825.825,0,0,1,.45.75.668.668,0,0,1-.3.9ZM53.65,13.2,52.3,9.75,50.95,13.2Zm-31.5,3.6H20.2V10.2l-2.85,6.6H15.7l-3-6.6v6.6H8.8l-.75-1.95H4L3.25,16.8H1.15L4.6,8.25H7.45l3.3,8.1V8.4H13.9l2.55,5.7,2.4-5.7h3.3v8.4Zm7.95,0H23.65V8.4H30.1v1.8H25.6v1.5h4.5v1.8H25.6v1.65h4.5V16.8Zm9.15-6.15A2.376,2.376,0,0,1,37.9,12.9a1.536,1.536,0,0,1,.9.75c.3.45.3.75.3,1.65v1.65H37.15V15.9a3.23,3.23,0,0,0-.3-1.65c-.3-.3-.75-.3-1.35-.3H33.4V17.1H31.45V8.4h4.5a4.071,4.071,0,0,1,2.4.45c.6.3.9.75.9,1.8ZM42.4,16.8H40.45V8.4H42.4v8.4Zm23.1,0H62.8l-3.75-6.45V16.8h-3.9l-.75-1.95H50.35L49.6,16.8H47.35a4.057,4.057,0,0,1-2.85-.9,4.164,4.164,0,0,1-1.05-3.3A4.392,4.392,0,0,1,44.5,9.3a3.665,3.665,0,0,1,3-1.05h1.95V10.2h-1.8a2.239,2.239,0,0,0-1.5.45,2.993,2.993,0,0,0-.6,1.95A3.4,3.4,0,0,0,46,14.55a2.094,2.094,0,0,0,1.35.45h.9l2.7-6.75h3l3.3,8.1V8.4h3l3.45,6v-6h1.8v8.4ZM1.15,18.6h3.3l.75-1.95H6.85L7.6,18.6h6.6V17.1l.6,1.5h3.45l.6-1.5v1.5H35.2V15.45h.3c.15,0,.3,0,.3.45v2.7h8.4v-.75a7.423,7.423,0,0,0,3.15.75h3.6l.75-1.95h1.65l.75,1.95H61V16.8l1.05,1.8h5.4V6.6h-5.4V7.95L61,6.6H55.45V7.95L54.7,6.6H47.2a7.63,7.63,0,0,0-3.3.6V6.6H38.8v.6a2.869,2.869,0,0,0-2.25-.6H17.65l-1.2,3-1.35-3h-6V7.95L8.5,6.6H3.4L1,12.3v6.3ZM70,24.9H66.4a1.124,1.124,0,0,0-.75.15.779.779,0,0,0-.3.6c0,.3.15.6.45.6a1.124,1.124,0,0,0,.75.15H67.6a3.114,3.114,0,0,1,2.25.6c.15,0,.15.15.15.3V24.9Zm0,5.55c-.45.75-1.35,1.05-2.7,1.05H63.55V29.7H67.3c.45,0,.6,0,.75-.3.15-.15.15-.3.15-.6a.779.779,0,0,0-.3-.6h-.45c-1.8,0-4.2,0-4.2-2.7a2.523,2.523,0,0,1,2.85-2.55H70V21.3H66.4a4.647,4.647,0,0,0-2.4.6v-.6H58.6a4.089,4.089,0,0,0-2.4.6v-.6H46.75v.6a4.689,4.689,0,0,0-2.7-.6h-6.3v.6c-.6-.6-1.95-.6-2.7-.6H28l-1.5,1.8L25,21.3H14.5V33.15H24.85l1.65-1.8,1.5,1.8h6.45V30.3h.6a5.708,5.708,0,0,0,2.7-.45V33H43V29.85h.3c.3,0,.3,0,.3.3v2.7H59.5a4.8,4.8,0,0,0,2.7-.75v.75h5.1a5.71,5.71,0,0,0,2.85-.6L70,30.45ZM62.2,27a2.191,2.191,0,0,1,.6,1.8c0,1.8-1.05,2.7-3,2.7H56.05V29.7H59.8c.45,0,.6,0,.75-.3.15-.15.15-.3.15-.6a.779.779,0,0,0-.3-.6h-.6c-1.8,0-4.05,0-4.05-2.7a2.523,2.523,0,0,1,2.85-2.55h3.9v1.8H58.9a1.124,1.124,0,0,0-.75.15.779.779,0,0,0-.3.6c0,.3.15.6.45.6a1.124,1.124,0,0,0,.75.15H60.1a3.858,3.858,0,0,1,2.1.75Zm-17.55-.45a1.9,1.9,0,0,1-.9.15h-2.4V24.75h2.4c.3,0,.75,0,.9.15a.825.825,0,0,1,.45.75.907.907,0,0,1-.45.9Zm1.2,1.05a1.536,1.536,0,0,1,.9.75,2.248,2.248,0,0,1,.3,1.5V31.5H45.1V30.3a3.23,3.23,0,0,0-.3-1.65c-.3-.3-.75-.3-1.35-.3h-2.1V31.5H39.4V22.95h4.5a4.072,4.072,0,0,1,2.4.45,2.152,2.152,0,0,1,1.05,1.95,2.985,2.985,0,0,1-1.5,2.25Zm2.4-4.65H54.7v1.8H50.2v1.5h4.5v1.8H50.2V29.7h4.5v1.8H48.25V22.95ZM35.05,27H32.5V24.9h2.55c.75,0,1.2.3,1.2,1.05.15.6-.45,1.05-1.2,1.05ZM30.7,30.75l-3-3.45,3-3.45v6.9ZM22.9,29.7H18.1V28.05h4.2v-1.8H18.1v-1.5h4.95l2.1,2.4L22.9,29.7Zm15.6-3.9c0,2.4-1.65,2.85-3.45,2.85h-2.4V31.5H28.9l-2.4-2.85L23.95,31.5h-7.8V22.95h7.8l2.4,2.85,2.55-2.85h6.15c1.65,0,3.45.45,3.45,2.85Z" transform="translate(-1 3.3)" fill="#fff"/>
</svg>
