<svg id="bkash" xmlns="http://www.w3.org/2000/svg" width="70" height="45.231" viewBox="0 0 70 45.231">
  <rect id="Rectangle_218" data-name="Rectangle 218" width="70" height="45.231" fill="#e8e8e8"/>
  <g id="Group_115" data-name="Group 115" transform="translate(5.63 9.13)">
    <g id="Group_113" data-name="Group 113" transform="translate(0 10.043)">
      <path id="Path_123" data-name="Path 123" d="M4.309,14.578a1.93,1.93,0,0,0-.152-.913c0-.3-.152-.457-.457-.761l1.674-.3v5.174a.149.149,0,0,0,.152.152l.152-.152.457-.457c.152-.152.457-.3.609-.457a1.655,1.655,0,0,1,.761-.152,3.581,3.581,0,0,1,1.217.3,1.559,1.559,0,0,1,.761.913,10.485,10.485,0,0,1,.457,1.217,3.782,3.782,0,0,1,.152,1.217c0,.457-.152,1.065-.152,1.522A3.059,3.059,0,0,1,9.33,23.1a6.442,6.442,0,0,1-1.065.761,2.5,2.5,0,0,1-1.522.3H6.135a.915.915,0,0,1-.609-.152.915.915,0,0,1-.609-.152H4.309V14.578Zm4.565,4.87c-.152-.3-.152-.761-.3-.913a2.672,2.672,0,0,0-.609-.761,1.162,1.162,0,0,0-.761-.3,1.235,1.235,0,0,0-1.217.609A3.245,3.245,0,0,0,5.526,19.9v2.13c0,.3.152.457.152.761a.486.486,0,0,0,.457.457A1.14,1.14,0,0,0,6.9,23.4a1.286,1.286,0,0,0,.913-.3,1.519,1.519,0,0,0,.609-.761c.3,0,.457-.457.457-.761s.152-.761.152-1.065A2.59,2.59,0,0,1,8.874,19.448Z" transform="translate(-3.7 -12.6)" fill="#231f20"/>
      <path id="Path_124" data-name="Path 124" d="M9.357,15.483V14.265a2.821,2.821,0,0,0-.3-1.065h2.13a2.2,2.2,0,0,0-.3,1.065v3.8a1.154,1.154,0,0,0,.609-.3c.152-.152.457-.3.609-.457.152-.3.457-.457.609-.609.152-.3.457-.457.609-.761.457-.457.761-.913,1.065-1.217a1.39,1.39,0,0,0,.457-.761v-.3h1.826a6.618,6.618,0,0,0-1.065.913,6.619,6.619,0,0,0-.913,1.065L12.1,18.07l2.587,3.8c.152.3.457.609.609.913.3.3.457.609.761.913H14.378c-.152,0-.3,0-.3-.152l-.3-.3L11.03,18.83l-.152-.152-.152-.152h0v4.109a2.2,2.2,0,0,0,.3,1.065H8.9a2.2,2.2,0,0,0,.3-1.065V21.417l.152-5.935Z" transform="translate(-0.987 -12.287)" fill="#231f20"/>
      <path id="Path_125" data-name="Path 125" d="M18.109,22.761A1.372,1.372,0,0,1,17.957,22c0-.152,0-.3-.152-.3h0c-.152.152-.152.3-.3.457q-.228.457-.457.457c-.152.152-.3.152-.457.3-.152,0-.457.152-.609.152a1.86,1.86,0,0,1-1.37-.457A1.483,1.483,0,0,1,14,21.239a2.163,2.163,0,0,1,.3-.913,1.519,1.519,0,0,1,.761-.609l.913-.457.913-.457c.152-.152.457-.152.609-.3s.3-.152.3-.3.152-.152.152-.457V17.13a2.2,2.2,0,0,0-.3-1.065.92.92,0,0,0-.913-.457.894.894,0,0,0-.761.3c-.152.152-.3.3-.3.457-.152.152-.152.3-.3.457s-.3.3-.457.3a.559.559,0,0,1-.457-.152c-.152-.152-.152-.152-.152-.457a.791.791,0,0,1,.3-.609c.152-.152.457-.3.609-.457.3-.152.609-.152.913-.3.3,0,.609-.152.913-.152H17.8c.3,0,.457.152.609.152l.457.457a.915.915,0,0,1,.152.609v4.87a1.728,1.728,0,0,0,.457,1.217Zm-2.435-.913a1.162,1.162,0,0,0,.761.3A.915.915,0,0,0,17.043,22c.152-.152.3-.152.457-.457.152-.152.152-.3.3-.609a1.15,1.15,0,0,0,.152-.609V18.652l-.913.609a3.327,3.327,0,0,0-.761.457c-.152.152-.457.3-.609.457s-.3.3-.3.457c-.152.152-.152.3-.152.609C15.37,21.239,15.37,21.543,15.674,21.848Z" transform="translate(1.674 -11.348)" fill="#231f20"/>
      <path id="Path_126" data-name="Path 126" d="M19.774,17.535c.152.152.3.457.609.609s.457.3.761.457a3.326,3.326,0,0,1,.761.457c.3.152.457.457.609.609a2.163,2.163,0,0,1,.3.913,2.2,2.2,0,0,1-.3,1.065c-.152.3-.457.457-.609.761l-.913.457a1.93,1.93,0,0,1-.913.152,1.93,1.93,0,0,1-.913-.152,1.162,1.162,0,0,1-.761-.3.149.149,0,0,1-.152-.152.531.531,0,0,1-.152-.3V20.883a2.189,2.189,0,0,1,.3.457l.457.457c.152.152.3.152.457.3.152,0,.457.152.609.152a2.2,2.2,0,0,0,1.065-.3,1.185,1.185,0,0,0,.457-1.065,6.591,6.591,0,0,0-.152-.761c-.152-.152-.3-.457-.609-.609a3.326,3.326,0,0,0-.761-.457c-.3-.152-.457-.3-.761-.457l-.609-.609a2.256,2.256,0,0,1-.152-1.065,1.483,1.483,0,0,1,.609-1.37,2.734,2.734,0,0,1,1.674-.457h.761a6.591,6.591,0,0,0,.761.152h.152a.149.149,0,0,1,.152.152V16.47l-.457-.457c-.152-.152-.3-.152-.457-.3a.559.559,0,0,0-.457-.152h-.457a6.591,6.591,0,0,0-.761.152c-.3.152-.3.457-.3.761A1.956,1.956,0,0,0,19.774,17.535Z" transform="translate(3.813 -11.296)" fill="#231f20"/>
      <path id="Path_127" data-name="Path 127" d="M27.426,22.135v.913a6.591,6.591,0,0,0,.152.761h-1.37V18.635c0-.3-.152-.457-.152-.609q-.228-.457-.457-.457a1.14,1.14,0,0,0-.761-.152,1.14,1.14,0,0,0-.761.152l-.457.457a1.14,1.14,0,0,0-.152.761v4.261a1.162,1.162,0,0,0,.3.761H22.1c.152-.3.152-.457.3-.761V13.613A.791.791,0,0,0,22.1,13l1.522-.3v4.87a.149.149,0,0,0,.152-.152,1.17,1.17,0,0,1,.457-.3c.3-.152.457-.152.609-.3a1.655,1.655,0,0,1,.761-.152,1.86,1.86,0,0,1,1.37.457,2.272,2.272,0,0,1,.457,1.522v3.5Z" transform="translate(5.9 -12.548)" fill="#231f20"/>
    </g>
    <g id="Group_114" data-name="Group 114" transform="translate(31.652)">
      <path id="Path_128" data-name="Path 128" d="M24.6,6,37.687,7.826,34.643,19.087Z" transform="translate(-24.448 -6)" fill="#d83768"/>
      <path id="Path_129" data-name="Path 129" d="M34.548,7.2l9.739,13.391-11.261,5.63-1.37-5.935a8.056,8.056,0,0,1,.152-3.8Z" transform="translate(-20.852 -5.374)" fill="#d83768"/>
      <path id="Path_130" data-name="Path 130" d="M41.452,18.191,37.8,12.865,43.887,11.8Z" transform="translate(-17.561 -2.974)" fill="#b01117"/>
      <path id="Path_131" data-name="Path 131" d="M42.465,11.8l2.283,2.587H41.4Z" transform="translate(-15.683 -2.974)" fill="#b01117"/>
      <path id="Path_132" data-name="Path 132" d="M33.8,21.017,43.083,16.3l-.3,1.217Z" transform="translate(-19.648 -0.626)" fill="#d83a2b"/>
      <path id="Path_133" data-name="Path 133" d="M32.557,15.4,28.6,28.791l5.935-4.717Z" transform="translate(-22.361 -1.096)" fill="#9d0b0f"/>
      <path id="Path_134" data-name="Path 134" d="M29.674,12.522,26.022,7.5,24.5,7.652Z" transform="translate(-24.5 -5.217)" fill="#b01117"/>
      <path id="Path_135" data-name="Path 135" d="M31.6,15.3a1.846,1.846,0,0,0,.152.761L33.122,22l11.261-5.63-.152-.152Z" transform="translate(-20.796 -1.148)" fill="#c3161c"/>
    </g>
  </g>
</svg>
