<svg xmlns="http://www.w3.org/2000/svg" width="239.505" height="45" viewBox="0 0 239.505 45">
  <g id="cash-on-delivery" transform="translate(-0.974 -1)">
    <g id="Group_134" data-name="Group 134" transform="translate(0.975 1)">
      <path id="Path_171" data-name="Path 171" d="M41.5,30.973c-2.25,0-4.5-.321-6.75-.482a25.607,25.607,0,0,1-6.911-.964C27.2,29.2,27.2,28.241,28,28.241c5.946,0,12.054.8,18,.482,1.125,0,3.214,0,4.339-.8,1.929-1.286-.964-3.054-2.25-3.536a22.756,22.756,0,0,0-3.214-.643,7.824,7.824,0,0,1-1.929.161,49.752,49.752,0,0,1-12.857-1.125.649.649,0,0,1,.161-1.286c4.018,0,8.2.643,12.214.321,1.446-.161,7.554-.643,4.982-3.857-.964-1.286-4.821-1.607-6.429-1.768-3.375-.321-7.393-.161-10.768-1.286-2.089-.8-2.893-2.571-1.125-4.179.964-.8,2.411-1.125,3.536-1.929a13.878,13.878,0,0,0,2.089-2.25c1.286-2.411-.482-4.5-3.054-4.018-4.018.8-6.589,4.661-10.125,6.429a22.348,22.348,0,0,1-11.089,2.411H9.362c-1.446,0-3.214-.8-4.661-.643-3.214.321-2.25,5.3-2.25,7.875,0,2.732.321,5.464.482,8.2,0,1.607.161,3.214.321,4.821.321,1.929.643,3.7,2.893,3.7,3.054.161,6.589-.643,9.482.482,2.571.964,3.857,3.7,6.107,4.982,3.054,1.768,7.232,2.089,10.768,2.089s8.036-.321,9.482-3.857a33.935,33.935,0,0,1-4.179-.321,65.651,65.651,0,0,1-12.536-1.929.412.412,0,0,1,.161-.8c4.821-.161,9.8.482,14.625.482,1.929,0,5.143.482,6.911-.482a2.614,2.614,0,0,0,.964-2.732C47.612,30.651,43.433,30.973,41.5,30.973Z" transform="translate(-0.16 -0.116)" fill="#ffcfb4"/>
      <path id="Path_172" data-name="Path 172" d="M86,12.711c0-1.929.321-5.625-2.089-5.786-4.661-.321-9.161,0-13.821,0-4.982,0-9.964,0-15.107-.161-5.3-.161-10.607-.482-15.911-.482-4.339,0-8.679-.482-13.018-.482h0a7.426,7.426,0,0,1-2.732,2.732,16.22,16.22,0,0,1-2.411,1.125c-.161.161-.482.161-.643.321-.482.482-.643,0-.161.482s1.768.321,2.25.482c1.286.161,2.732.321,4.018.482,3.054.321,16.393.964,13.018,7.071a4.648,4.648,0,0,1-1.768,1.768c.643.161,1.286.482,1.929.643,2.089,1.125,4.661,4.5,1.929,6.268a11.515,11.515,0,0,1-3.536,1.286,7.577,7.577,0,0,1,1.607,1.607c1.446,2.25.321,4.661-2.089,5.786a10.222,10.222,0,0,1-4.5.8,4.269,4.269,0,0,1-1.446,3.536,26.28,26.28,0,0,1,3.536-.321c2.411-.161,4.821,0,7.071-.161,5.143-.161,10.446.161,15.589.161H81.342c1.125,0,2.411,0,3.054-1.125.8-1.125.8-3.7,1.125-4.982A73.017,73.017,0,0,0,86,19.3ZM59.967,9.336a34.935,34.935,0,0,1,5.786.321c1.929,0,3.857.161,5.786.161,3.7,0,7.232-.161,10.929,0,.482,0,.482.643.161.8a13.7,13.7,0,0,1-5.143.482H71.7a70.272,70.272,0,0,1-11.571-.964C59.324,10.139,59.485,9.336,59.967,9.336Zm-22.661.482c-3.214,0-6.75.321-9.8-.482-.321-.161-.482-.643,0-.8,3.054-.643,6.75-.161,9.8-.161a78.328,78.328,0,0,1,8.679.321.4.4,0,0,1,0,.8A52.269,52.269,0,0,1,37.306,9.818Zm25.071,15.75A8.639,8.639,0,0,1,51.449,32.8c-4.982-1.446-7.714-7.554-6.429-12.375.8-2.732,2.25-5.464,4.982-6.75C57.235,9.657,63.181,19.139,62.378,25.568Zm.964-13.018a24.328,24.328,0,0,1,4.821.321c1.607,0,3.214.161,4.982.161,3.054,0,6.268-.161,9.321,0,.482,0,.482.643.161.8a10.063,10.063,0,0,1-4.339.482H73.306a53.6,53.6,0,0,1-9.964-.964C62.7,13.354,62.86,12.711,63.342,12.55ZM82.467,36.979C81.5,38.586,78.449,38.1,76.842,38.1s-4.018.321-5.625-.482c-1.286-.643-1.286-1.768-1.286-3.054.161-1.286.321-2.571,1.286-3.375,1.446-.964,4.339-.321,5.946-.321,1.286,0,3.536-.321,4.661.321.161.161.321.161.321.321h0C83.431,32.639,83.11,35.854,82.467,36.979Z" transform="translate(10.467 1.914)" fill="#71d182"/>
      <path id="Path_173" data-name="Path 173" d="M40.662,11.831a9.343,9.343,0,0,0-4.179,5.946c-.964,4.018,1.286,9.643,5.786,10.768,5.3,1.286,9.321-3.375,8.839-8.357C50.626,14.885,46.448,8.617,40.662,11.831Z" transform="translate(20.451 5.044)" fill="#00aa79"/>
      <path id="Path_174" data-name="Path 174" d="M57.558,22.342a19.369,19.369,0,0,0-3.054,0c-1.446.161-3.054,1.286-2.571,3.054s4.821,1.446,6.429,1.286c1.607,0,4.018-.321,4.018-2.411C62.54,21.538,59.326,22.342,57.558,22.342Z" transform="translate(29.912 11.891)" fill="#00aa79"/>
      <path id="Path_175" data-name="Path 175" d="M30.1,19.4" transform="translate(16.709 10.171)"/>
      <path id="Path_176" data-name="Path 176" d="M99.855,19.643a67.186,67.186,0,0,0-.321-8.036c-.161-1.286-.321-2.732-1.607-3.536-1.607-.964-4.661-.643-6.429-.643-2.411,0-4.821,0-7.071.161-5.946,0-11.732-.161-17.518-.161-5.3,0-10.607-.482-16.071-.482-4.339,0-8.518-.482-12.857-.482V5.339C38.14,2.607,36.212,1,33.48,1c-3.214.161-5.625,1.929-7.875,3.857A22.281,22.281,0,0,1,15.319,10a15.616,15.616,0,0,1-6.107,0,23.6,23.6,0,0,0-4.661-.8H4.23c-2.732.161-3.214,2.732-3.214,4.982a126.686,126.686,0,0,0,.8,17.518c.321,2.089.482,5.3,2.732,6.268,2.893,1.286,6.75.161,9.8.482,3.7.321,5.143,4.018,8.518,5.464a26.1,26.1,0,0,0,9.321,1.929,23.646,23.646,0,0,0,8.679-.964c2.411.643,5.3,0,7.875.161,2.893.161,5.946,0,8.839,0,6.75.321,13.661.161,20.411.161,5.625,0,11.571.482,17.2-.161,4.179-.482,4.179-5.946,4.661-9.161C100.176,30.571,99.855,25.107,99.855,19.643ZM33.48,43.75c-3.536,0-7.554-.321-10.768-2.089-2.25-1.286-3.536-4.018-6.107-4.982-2.893-.964-6.429-.321-9.482-.482-2.25-.161-2.732-1.768-2.893-3.7-.161-1.607-.321-3.214-.321-4.821-.161-2.732-.482-5.464-.482-8.2,0-2.411-.964-7.554,2.25-7.875,1.286-.161,3.054.643,4.5.643H11.3A21.747,21.747,0,0,0,22.23,9.839c3.536-1.768,6.107-5.786,10.125-6.429,2.571-.482,4.339,1.768,3.054,4.018a8.593,8.593,0,0,1-2.089,2.089c-.964.8-2.411,1.125-3.375,1.929-1.768,1.446-.964,3.375,1.125,4.179,3.214,1.286,7.232.964,10.768,1.286,1.607.161,5.464.482,6.429,1.768,2.571,3.214-3.375,3.857-4.982,3.857-4.018.321-8.2-.321-12.214-.321a.649.649,0,0,0-.161,1.286,49.144,49.144,0,0,0,12.857,1.125c.643,0,1.286-.161,1.929-.161a18.959,18.959,0,0,1,3.214.643c1.286.482,4.339,2.089,2.25,3.536-.964.643-3.214.643-4.339.8-5.946.482-12.054-.482-18-.482a.657.657,0,0,0-.161,1.286,25.607,25.607,0,0,0,6.911.964c2.25.161,4.5.482,6.75.482,1.929,0,6.107-.321,6.75,2.25a2.814,2.814,0,0,1-.964,2.732c-1.768.964-4.982.482-6.911.482-4.821,0-9.8-.643-14.625-.482-.482,0-.643.8-.161.8a81.39,81.39,0,0,0,12.536,1.929c1.286.161,2.732.161,4.179.321C41.515,43.429,37.015,43.75,33.48,43.75ZM97.123,37c-.161,1.286-.321,3.857-1.125,4.982s-1.929,1.125-3.054,1.125H69.319c-5.143,0-10.446-.321-15.589-.161-2.411.161-4.821,0-7.071.161-1.125,0-2.411.321-3.536.321a4.725,4.725,0,0,0,1.446-3.536,13.943,13.943,0,0,0,4.5-.8A3.957,3.957,0,0,0,51.158,33.3,5.108,5.108,0,0,0,49.551,31.7a8.48,8.48,0,0,0,3.536-1.286c2.732-1.768.161-5.3-1.929-6.268A9.061,9.061,0,0,0,49.23,23.5,4.648,4.648,0,0,0,51,21.732c3.214-6.107-9.964-6.75-13.018-7.071-1.286-.161-2.732-.321-4.018-.482-.482,0-1.929,0-2.25-.482-.482-.482-.482,0,.161-.482a1.218,1.218,0,0,1,.643-.321A7.36,7.36,0,0,1,34.6,11.607a8.86,8.86,0,0,0,2.732-2.732h0c4.339,0,8.679.482,13.018.482,5.3,0,10.607.321,15.911.482,4.982,0,9.964.161,15.107.161,4.661,0,9.161-.321,13.821,0,2.411.161,2.089,3.857,2.089,5.786,0,2.25,0,4.5.161,6.75A62.437,62.437,0,0,1,97.123,37Z" transform="translate(-0.975 -1)"/>
      <path id="Path_177" data-name="Path 177" d="M40.5,11.063a11.143,11.143,0,0,0-4.982,6.75c-1.286,4.821,1.446,10.929,6.429,12.375a8.639,8.639,0,0,0,10.929-7.232C53.841,16.527,47.894,7.045,40.5,11.063ZM42.752,28.9c-4.339-1.125-6.75-6.589-5.786-10.768a9.962,9.962,0,0,1,4.179-5.946c5.786-3.214,9.964,3.054,10.446,8.2C52.073,25.688,48.216,30.188,42.752,28.9Z" transform="translate(19.807 4.526)"/>
      <path id="Path_178" data-name="Path 178" d="M63.594,22.222h0c-.161-.161-.321-.321-.482-.321-1.286-.643-3.375-.321-4.661-.321-1.607,0-4.5-.643-5.946.321-1.125.8-1.286,2.089-1.286,3.375-.161,1.286,0,2.411,1.286,3.054,1.446.643,4.018.482,5.625.482,1.446,0,4.661.482,5.625-1.125C64.077,26.4,64.4,23.186,63.594,22.222Zm-11.089,3.7c-.482-1.607,1.125-2.893,2.571-3.054a19.37,19.37,0,0,1,3.054,0c1.768,0,4.982-.8,4.821,1.929,0,2.089-2.411,2.411-4.018,2.411S52.987,27.686,52.505,25.919Z" transform="translate(29.5 11.367)"/>
      <path id="Path_179" data-name="Path 179" d="M44.815,8.816a70.273,70.273,0,0,0,11.571.964h5.786A13.7,13.7,0,0,0,67.315,9.3c.482-.161.482-.8,0-.8H56.386c-1.929,0-3.857-.161-5.786-.161s-3.857-.482-5.786-.321C44.494,8.012,44.333,8.816,44.815,8.816Z" transform="translate(25.458 3.238)"/>
      <path id="Path_180" data-name="Path 180" d="M61.873,11.78a10.063,10.063,0,0,0,4.339-.482c.321-.161.321-.8-.161-.8H56.73c-1.607,0-3.214-.161-4.982-.161-1.607,0-3.214-.482-4.821-.321-.321,0-.482.8-.161.8a51.094,51.094,0,0,0,9.964.964Z" transform="translate(26.721 4.452)"/>
      <path id="Path_181" data-name="Path 181" d="M43.2,7.887a52.268,52.268,0,0,0-8.679-.321c-3.214,0-6.75-.482-9.8.161-.482.161-.321.643,0,.8,3.054.8,6.589.482,9.8.482A78.207,78.207,0,0,0,43.2,8.851C43.679,8.691,43.679,7.887,43.2,7.887Z" transform="translate(13.255 2.881)"/>
    </g>
    <g id="Group_138" data-name="Group 138" transform="translate(102.426 2.446)">
      <g id="Group_135" data-name="Group 135" transform="translate(3.054)">
        <path id="Path_182" data-name="Path 182" d="M76.607,5.957a4.71,4.71,0,0,0-4.179,2.089,9.383,9.383,0,0,0-1.446,5.625c0,4.982,1.929,7.554,5.625,7.554A17.339,17.339,0,0,0,82.393,20.1v4.018a15.57,15.57,0,0,1-6.268,1.125c-3.214,0-5.786-.964-7.554-3.054C66.8,20.261,66,17.368,66,13.671a14.261,14.261,0,0,1,1.286-6.107,8.963,8.963,0,0,1,3.7-4.018A10.857,10.857,0,0,1,76.607,2.1,14.223,14.223,0,0,1,83.2,3.707L81.589,7.564c-.8-.321-1.768-.8-2.571-1.125A6.449,6.449,0,0,0,76.607,5.957Z" transform="translate(-66 -1.779)"/>
        <path id="Path_183" data-name="Path 183" d="M94.054,24.861l-1.607-5.3h-8.2l-1.607,5.3H77.5L85.536,2.2h5.625L99.2,24.861Zm-2.893-9.482c-1.446-4.821-2.411-7.714-2.571-8.2a7.471,7.471,0,0,0-.482-1.446c-.321,1.286-1.286,4.661-2.893,9.8h5.946Z" transform="translate(-59.018 -1.718)"/>
        <path id="Path_184" data-name="Path 184" d="M106.586,18.714a5.806,5.806,0,0,1-2.25,4.821A9.856,9.856,0,0,1,98.229,25.3,16.378,16.378,0,0,1,91.8,24.018v-4.5c1.446.643,2.893,1.125,3.857,1.446a10.8,10.8,0,0,0,2.893.482,3.336,3.336,0,0,0,2.411-.643,2.263,2.263,0,0,0,.482-2.893,6.99,6.99,0,0,0-1.125-.964c-.482-.321-1.446-.8-2.893-1.607a10.014,10.014,0,0,1-3.054-1.929,6.629,6.629,0,0,1-1.607-2.089,7.676,7.676,0,0,1-.643-2.893,5.582,5.582,0,0,1,2.089-4.661A8.413,8.413,0,0,1,99.836,2a12.234,12.234,0,0,1,3.375.482,27.7,27.7,0,0,1,3.375,1.125l-1.607,3.7a20.859,20.859,0,0,0-3.054-.964,12.607,12.607,0,0,0-2.25-.321,2.727,2.727,0,0,0-2.089.643,2.232,2.232,0,0,0-.8,1.607A2.323,2.323,0,0,0,97.1,9.393a2.729,2.729,0,0,0,.964.964c.482.321,1.446.8,3.054,1.607a12.548,12.548,0,0,1,4.339,3.054A5.634,5.634,0,0,1,106.586,18.714Z" transform="translate(-50.336 -1.839)"/>
        <path id="Path_185" data-name="Path 185" d="M122.143,24.861h-4.821v-9.8h-9v9.8H103.5V2.2h4.821v8.839h9V2.2h4.821Z" transform="translate(-43.232 -1.718)"/>
        <path id="Path_186" data-name="Path 186" d="M142.636,13.632a13.048,13.048,0,0,1-2.732,8.679c-1.929,2.089-4.5,3.054-8.036,3.054s-6.107-.964-8.036-3.054-2.732-4.821-2.732-8.679.964-6.589,2.732-8.679A10.774,10.774,0,0,1,131.868,1.9c3.536,0,6.107.964,8.036,3.054A13.048,13.048,0,0,1,142.636,13.632Zm-16.554,0a9.592,9.592,0,0,0,1.446,5.786,5.078,5.078,0,0,0,4.339,1.929c3.857,0,5.786-2.571,5.786-7.554q0-7.714-5.786-7.714a5.078,5.078,0,0,0-4.339,1.929A9.383,9.383,0,0,0,126.082,13.632Z" transform="translate(-32.546 -1.9)"/>
        <path id="Path_187" data-name="Path 187" d="M157.489,24.861h-6.107l-9.8-17.2h-.161c.161,3.054.321,5.143.321,6.429V24.7H137.4V2.2h6.107l9.8,16.875h.161c-.161-2.893-.161-4.982-.161-6.268V2.2h4.339V24.861h-.161Z" transform="translate(-22.65 -1.718)"/>
      </g>
      <g id="Group_136" data-name="Group 136" transform="translate(39.375 27.482)">
        <path id="Path_188" data-name="Path 188" d="M101.3,26.554c0,2.571-.643,4.5-2.089,5.786a9.143,9.143,0,0,1-6.268,1.929H88.6V19h4.821q3.857,0,5.786,1.929A7.166,7.166,0,0,1,101.3,26.554Zm-3.214,0c0-3.214-1.446-4.982-4.339-4.982H91.975v9.964h1.446C96.475,31.536,98.082,29.929,98.082,26.554Z" transform="translate(-88.6 -19)"/>
        <path id="Path_189" data-name="Path 189" d="M107.339,34.268H98.5V19h8.839v2.732h-5.625v3.375h5.143v2.732h-5.143V31.7h5.625Z" transform="translate(-82.589 -19)"/>
        <path id="Path_190" data-name="Path 190" d="M106,34.268V19h3.214V31.536h6.268v2.732Z" transform="translate(-78.036 -19)"/>
        <path id="Path_191" data-name="Path 191" d="M113.5,34.268V19h3.214V34.268Z" transform="translate(-73.482 -19)"/>
        <path id="Path_192" data-name="Path 192" d="M127.307,19h3.214l-5.143,15.268h-3.536L116.7,19h3.214l2.893,9.161a16.679,16.679,0,0,1,.482,1.929,13.09,13.09,0,0,1,.321,1.446,15.54,15.54,0,0,1,.8-3.375Z" transform="translate(-71.539 -19)"/>
        <path id="Path_193" data-name="Path 193" d="M135.339,34.268H126.5V19h8.839v2.732h-5.625v3.375h5.143v2.732h-5.143V31.7h5.625Z" transform="translate(-65.589 -19)"/>
        <path id="Path_194" data-name="Path 194" d="M137.214,28.482v5.786H134V19h4.5a7.7,7.7,0,0,1,4.661,1.125,4.151,4.151,0,0,1,1.446,3.375,3.948,3.948,0,0,1-.8,2.411,4.312,4.312,0,0,1-2.089,1.607c2.25,3.375,3.857,5.625,4.5,6.589h-3.536l-3.7-5.786-1.768.161Zm0-2.732h.964a4.257,4.257,0,0,0,2.25-.482,1.773,1.773,0,0,0,.8-1.607,1.773,1.773,0,0,0-.8-1.607,4.257,4.257,0,0,0-2.25-.482h-.964Z" transform="translate(-61.036 -19)"/>
        <path id="Path_195" data-name="Path 195" d="M148.25,25.268,151.464,19H155l-5.143,9.321v5.946h-3.214V28.482L141.5,19h3.536Z" transform="translate(-56.482 -19)"/>
      </g>
      <g id="Group_137" data-name="Group 137" transform="translate(0 25.875)">
        <path id="Path_196" data-name="Path 196" d="M75.029,25.7h-9.8a1.125,1.125,0,0,0,0,2.25h9.8a1.1,1.1,0,0,0,1.125-1.125A1.208,1.208,0,0,0,75.029,25.7Z" transform="translate(-64.1 -13.325)"/>
        <path id="Path_197" data-name="Path 197" d="M74.818,22.8H67.425a1.125,1.125,0,0,0,0,2.25h7.393a1.1,1.1,0,0,0,1.125-1.125C76.1,23.282,75.461,22.8,74.818,22.8Z" transform="translate(-62.764 -15.086)"/>
        <path id="Path_198" data-name="Path 198" d="M75.832,20.925A1.1,1.1,0,0,0,74.707,19.8H69.725a1.125,1.125,0,0,0,0,2.25h4.982C75.35,22.211,75.832,21.568,75.832,20.925Z" transform="translate(-61.368 -16.907)"/>
        <path id="Path_199" data-name="Path 199" d="M92.905,18.964A2.291,2.291,0,0,0,90.977,18H77.316a2.748,2.748,0,0,0-2.571,2.089L72.816,32.625a2.531,2.531,0,0,0,.643,2.089,2.291,2.291,0,0,0,1.929.964H89.048a2.748,2.748,0,0,0,2.571-2.089l1.929-12.536A2.964,2.964,0,0,0,92.905,18.964Zm-3.7,14.143a.157.157,0,0,1-.161.161H75.227v-.161l1.929-12.536a.157.157,0,0,1,.161-.161h4.339l-.482,3.054a.966.966,0,0,0,.161.643.835.835,0,0,0,.643.321h2.732a1.068,1.068,0,0,0,.8-.643l.643-3.375h4.982v.161Z" transform="translate(-58.834 -18)"/>
        <path id="Path_200" data-name="Path 200" d="M88.282,32.2a.157.157,0,0,1-.161.161H74.3V32.2l1.929-12.536a.157.157,0,0,1,.161-.161h4.339l-.482,3.054a.966.966,0,0,0,.161.643.835.835,0,0,0,.643.321h2.732a1.068,1.068,0,0,0,.8-.643l.643-3.375h4.982v.161Z" transform="translate(-57.907 -17.089)" fill="#ffd24a"/>
      </g>
    </g>
  </g>
</svg>
