<svg xmlns="http://www.w3.org/2000/svg" xmlns:xlink="http://www.w3.org/1999/xlink" width="70" height="45" viewBox="0 0 70 45">
  <defs>
    <linearGradient id="linear-gradient" x1="0.016" y1="0.93" x2="0.973" y2="0.93" gradientUnits="objectBoundingBox">
      <stop offset="0" stop-color="#949494"/>
      <stop offset="0.055" stop-color="#a6a6a6"/>
      <stop offset="0.165" stop-color="#d5d5d5"/>
      <stop offset="0.253" stop-color="#fff"/>
      <stop offset="0.37" stop-color="#cacaca"/>
      <stop offset="0.514" stop-color="#8f8f8f"/>
      <stop offset="0.621" stop-color="#6a6a6a"/>
      <stop offset="0.677" stop-color="#5c5c5c"/>
      <stop offset="0.718" stop-color="#636464"/>
      <stop offset="0.78" stop-color="#787878"/>
      <stop offset="0.854" stop-color="#9a9a9a"/>
      <stop offset="0.939" stop-color="#c9c9c9"/>
      <stop offset="1" stop-color="#eff0f0"/>
    </linearGradient>
    <clipPath id="clip-path">
      <ellipse id="Ellipse_13" data-name="Ellipse 13" cx="21.862" cy="13.419" rx="21.862" ry="13.419"/>
    </clipPath>
    <linearGradient id="linear-gradient-2" x1="0.5" y1="1.569" x2="0.5" y2="0.476" gradientUnits="objectBoundingBox">
      <stop offset="0" stop-color="#c1c3c5"/>
      <stop offset="0.236" stop-color="#e0e1e2"/>
      <stop offset="0.446" stop-color="#fff"/>
      <stop offset="0.73" stop-color="#cacbcd"/>
      <stop offset="1" stop-color="#9c9ea1"/>
    </linearGradient>
  </defs>
  <g id="cc-dbbl" transform="translate(0.323)">
    <rect id="Rectangle_221" data-name="Rectangle 221" width="70" height="45" transform="translate(-0.323)" fill="#dbdbdb"/>
    <g id="XMLID_21_" transform="translate(13.117 3.769)">
      <path id="XMLID_6_" d="M52.423,16.668c0,7.388-9.8,13.268-21.862,13.268S8.7,24.055,8.7,16.668C8.7,9.431,18.5,3.4,30.562,3.4,42.623,3.551,52.423,9.431,52.423,16.668Z" transform="translate(-8.7 -2.043)" fill="url(#linear-gradient)"/>
      <g id="XMLID_22_">
        <g id="Group_140" data-name="Group 140">
          <g id="Group_139" data-name="Group 139" clip-path="url(#clip-path)">
            <ellipse id="XMLID_5_" cx="21.862" cy="13.419" rx="21.862" ry="13.419" stroke="#c4c4c5" stroke-miterlimit="10" stroke-width="0.131" fill="url(#linear-gradient-2)"/>
          </g>
        </g>
        <g id="Group_141" data-name="Group 141">
          <g id="XMLID_24_" clip-path="url(#clip-path)">
            <path id="XMLID_4_" d="M33.12,28.732c-.6.151-1.206.151-1.658.3a31.74,31.74,0,0,1-3.769.3h-.754a.148.148,0,0,1-.151-.151A50.5,50.5,0,0,1,19.4,20.591a20.959,20.959,0,0,1-1.658-3.166,5.234,5.234,0,0,1,.6-5.126A12.633,12.633,0,0,1,21.51,9.132,44.551,44.551,0,0,1,27.24,5.665C29.5,4.609,31.763,3.7,34.175,2.8h.452c.452.151,1.055.3,1.508.452A7.35,7.35,0,0,0,35.08,3.7,45.462,45.462,0,0,0,27.39,7.474a13.516,13.516,0,0,0-3.468,3.015A7.389,7.389,0,0,0,22.264,13.5a4.722,4.722,0,0,0,.3,2.865,14.264,14.264,0,0,0,2.111,3.468,42.5,42.5,0,0,0,4.975,5.428c1.206,1.206,2.412,2.111,3.618,3.317C32.969,28.582,32.969,28.582,33.12,28.732Z" transform="translate(-4.322 -2.348)" fill="#e8232a"/>
            <path id="XMLID_3_" d="M26.682,29.526H25.325c-.9-.151-1.658-.151-2.563-.3-1.055-.151-2.262-.452-3.317-.6a.148.148,0,0,1-.151-.151,37.962,37.962,0,0,1-5.126-7.689,12.187,12.187,0,0,1-1.055-3.317,6.068,6.068,0,0,1,.754-3.618,12.962,12.962,0,0,1,2.714-3.015,38.261,38.261,0,0,1,5.126-3.468A74.982,74.982,0,0,1,33.015,2.538a3.1,3.1,0,0,1,1.658,0c.3,0,.452.151.754.151-.452.151-.754.3-1.206.452a60.177,60.177,0,0,0-8.9,4.222A19.412,19.412,0,0,0,20.8,10.68a26.208,26.208,0,0,0-1.96,2.262,5.135,5.135,0,0,0-.452,4.674A22.089,22.089,0,0,0,20.5,21.837a65.517,65.517,0,0,0,4.975,6.332C25.928,28.621,26.23,29.074,26.682,29.526Z" transform="translate(-6.479 -2.538)" fill="#214595"/>
            <path id="XMLID_2_" d="M38.205,26.015a4.716,4.716,0,0,0-1.508.754,33.928,33.928,0,0,1-3.618,1.206h-.3a77.253,77.253,0,0,1-7.388-6.634,29.152,29.152,0,0,1-3.317-4.222,16.908,16.908,0,0,1-.754-1.96,6.16,6.16,0,0,1,.452-3.317,9.874,9.874,0,0,1,2.262-2.714A26.637,26.637,0,0,1,29.31,5.662,37.971,37.971,0,0,1,34.436,3.4h.452A10.4,10.4,0,0,1,36.4,4a10.4,10.4,0,0,1-1.508.6,21.833,21.833,0,0,0-5.729,3.317,12.256,12.256,0,0,0-2.714,2.865,6.863,6.863,0,0,0-.754,3.015,6.67,6.67,0,0,0,.754,2.262,16.284,16.284,0,0,0,2.412,3.015,43.376,43.376,0,0,0,5.88,4.825c1.055.754,2.111,1.508,3.166,2.111C38.205,25.865,38.205,25.865,38.205,26.015Z" transform="translate(-2.322 -2.043)" fill="#08974a"/>
          </g>
        </g>
      </g>
    </g>
    <g id="Group_142" data-name="Group 142" transform="translate(7.388 33.471)">
      <path id="Path_201" data-name="Path 201" d="M4.9,22.3H6.709c2.111,0,3.317,1.357,3.317,4.071S8.82,30.442,6.709,30.442H4.9Zm1.809,7.086c1.357,0,2.111-.9,2.111-3.015s-.754-2.865-2.111-2.865h-.6v5.88Z" transform="translate(-4.9 -22.149)"/>
      <path id="Path_202" data-name="Path 202" d="M9.3,22.3h2.262c1.357,0,2.412.452,2.412,2.111a1.974,1.974,0,0,1-.9,1.809h0a1.87,1.87,0,0,1,1.357,1.96c0,1.658-1.055,2.412-2.714,2.412H9.3Zm2.111,3.317c.9,0,1.357-.452,1.357-1.206s-.452-1.055-1.357-1.055h-.9v2.262Zm.151,3.769c1.055,0,1.658-.452,1.658-1.357s-.6-1.206-1.658-1.206H10.506v2.563Z" transform="translate(-2.666 -22.149)"/>
      <path id="Path_203" data-name="Path 203" d="M13.5,22.3h2.262c1.357,0,2.412.452,2.412,2.111a1.974,1.974,0,0,1-.9,1.809h0a1.87,1.87,0,0,1,1.357,1.96c0,1.658-1.055,2.412-2.714,2.412H13.5Zm2.111,3.317c.9,0,1.357-.452,1.357-1.206s-.452-1.055-1.357-1.055h-.9v2.262Zm.151,3.769c1.055,0,1.658-.452,1.658-1.357s-.6-1.206-1.658-1.206H14.706v2.563Z" transform="translate(-0.534 -22.149)"/>
      <path id="Path_204" data-name="Path 204" d="M17.7,22.3h1.206v6.935h2.865v1.206H17.7V22.3Z" transform="translate(1.599 -22.149)"/>
      <path id="Path_205" data-name="Path 205" d="M22.6,22.351h1.206l2.111,4.674.754,1.658h0c0-.9-.151-1.96-.151-2.865V22.2h1.206v8.142H26.52l-2.111-4.674-.754-1.658h0c0,.9.151,1.809.151,2.714v3.618H22.6V22.351Z" transform="translate(4.086 -22.2)"/>
      <path id="Path_206" data-name="Path 206" d="M27.2,22.3h4.222v1.206H28.406v2.111h2.412v1.206H28.406v2.412h3.015v1.206H27.2Z" transform="translate(6.422 -22.149)"/>
      <path id="Path_207" data-name="Path 207" d="M32.309,26.22,30.5,22.3h1.357l.754,1.809a10.388,10.388,0,0,1,.452,1.206h0a10.388,10.388,0,0,1,.452-1.206l.754-1.809h1.508l-1.809,4.071,1.96,4.222H34.571l-.754-1.96a5.355,5.355,0,0,0-.6-1.357h-.151l-.452,1.357-.754,1.96H30.5Z" transform="translate(8.097 -22.149)"/>
      <path id="Path_208" data-name="Path 208" d="M34.6,26.974V22.3h1.206v4.674c0,1.809.6,2.412,1.357,2.412s1.357-.6,1.357-2.412V22.3h1.206v4.674c0,2.714-1.055,3.769-2.563,3.769C35.655,30.592,34.6,29.537,34.6,26.974Z" transform="translate(10.179 -22.149)"/>
      <path id="Path_209" data-name="Path 209" d="M38.9,29.437l.754-1.055a2.356,2.356,0,0,0,1.809.9,1.075,1.075,0,0,0,1.206-1.055c0-.6-.452-.9-1.055-1.206l-1.055-.452A2.2,2.2,0,0,1,39.2,24.462,2.18,2.18,0,0,1,41.614,22.2a2.88,2.88,0,0,1,2.111,1.055l-.6.9a2.094,2.094,0,0,0-1.508-.754c-.6,0-1.055.3-1.055.9s.452.9,1.055,1.206l.9.452a2.426,2.426,0,0,1,1.357,2.262,2.294,2.294,0,0,1-2.412,2.412A3.22,3.22,0,0,1,38.9,29.437Z" transform="translate(12.362 -22.2)"/>
    </g>
  </g>
</svg>
