<svg xmlns="http://www.w3.org/2000/svg" width="52" height="51.988" viewBox="0 0 52 51.988">
  <g id="cloud-computing" transform="translate(-0.001 -0.056)">
    <g id="Group_232" data-name="Group 232" transform="translate(0.001 0.056)">
      <g id="Group_231" data-name="Group 231">
        <path id="Path_229" data-name="Path 229" d="M48.052,17.53A14.457,14.457,0,0,0,48.3,14.9,14.858,14.858,0,0,0,19.47,9.85,7.429,7.429,0,0,0,9.5,15.019a11.144,11.144,0,0,0,1.653,22.165h9.286a1.857,1.857,0,1,0,0-3.715H11.151a7.429,7.429,0,1,1,0-14.859,1.857,1.857,0,0,0,1.857-1.857,3.715,3.715,0,0,1,6.315-2.647,1.857,1.857,0,0,0,3.137-1.025,11.133,11.133,0,0,1,21.964,3.651q-.09.542-.234,1.074a1.857,1.857,0,0,0,.767,2.043,7.429,7.429,0,0,1-4.09,13.62H35.3a1.857,1.857,0,1,0,0,3.715h5.572A11.144,11.144,0,0,0,48.052,17.53Z" transform="translate(-0.001 -0.056)"/>
      </g>
    </g>
    <g id="Group_234" data-name="Group 234" transform="translate(16.745 16.754)">
      <g id="Group_233" data-name="Group 233">
        <path id="Path_230" data-name="Path 230" d="M175.544,176.323a1.857,1.857,0,0,0-2.581,0l-6.12,6.116V155.348a1.857,1.857,0,0,0-3.715,0v27.091l-6.116-6.116a1.857,1.857,0,0,0-2.626,2.626l9.286,9.286a1.857,1.857,0,0,0,2.627,0l0,0,9.286-9.286A1.857,1.857,0,0,0,175.544,176.323Z" transform="translate(-153.865 -153.491)"/>
      </g>
    </g>
  </g>
</svg>
