<svg xmlns="http://www.w3.org/2000/svg" width="52" height="51.721" viewBox="0 0 52 51.721">
  <g id="edit" transform="translate(0 -0.269)">
    <path id="Path_220" data-name="Path 220" d="M50.508,48.034A1.363,1.363,0,0,0,49.145,49.4V61.5a4.094,4.094,0,0,1-4.089,4.089H6.815A4.094,4.094,0,0,1,2.726,61.5V25.983a4.093,4.093,0,0,1,4.089-4.089h12.1a1.363,1.363,0,1,0,0-2.726H6.815A6.822,6.822,0,0,0,0,25.983V61.5a6.822,6.822,0,0,0,6.815,6.815H45.057A6.822,6.822,0,0,0,51.871,61.5V49.4A1.363,1.363,0,0,0,50.508,48.034Zm0,0" transform="translate(0 -16.324)" fill="#5d5d5d"/>
    <path id="Path_221" data-name="Path 221" d="M156.367,52.229l19.9-19.9,6.418,6.418-19.9,19.9Zm0,0" transform="translate(-135.055 -27.69)" fill="#5d5d5d"/>
    <path id="Path_222" data-name="Path 222" d="M132.543,204.311l7.092-1.965-5.128-5.128Zm0,0" transform="translate(-114.479 -170.108)" fill="#5d5d5d"/>
    <path id="Path_223" data-name="Path 223" d="M322.791,1.265a3.412,3.412,0,0,0-4.819,0L316.527,2.71l6.418,6.418,1.445-1.445a3.411,3.411,0,0,0,0-4.819Zm0,0" transform="translate(-273.387)" fill="#5d5d5d"/>
  </g>
</svg>
