<svg xmlns="http://www.w3.org/2000/svg" width="52" height="52" viewBox="0 0 52 52">
  <g id="future" transform="translate(-0.002 0)">
    <g id="Group_226" data-name="Group 226" transform="translate(0.002 0)">
      <g id="Group_225" data-name="Group 225" transform="translate(0 0)">
        <path id="Path_225" data-name="Path 225" d="M50.479,24.477A1.523,1.523,0,0,0,48.955,26,22.943,22.943,0,1,1,36.967,5.831l-1.9,1.9a1.523,1.523,0,0,0,1.077,2.6h7.289a1.523,1.523,0,0,0,1.523-1.523V1.524a1.523,1.523,0,0,0-2.6-1.077L39.2,3.6A26,26,0,0,0,7.617,44.385,26,26,0,0,0,52,26,1.523,1.523,0,0,0,50.479,24.477Z" transform="translate(-0.002 0)"/>
      </g>
    </g>
    <g id="Group_228" data-name="Group 228" transform="translate(24.479 14.686)">
      <g id="Group_227" data-name="Group 227">
        <path id="Path_226" data-name="Path 226" d="M252.317,154.392H244.05v-8.267a1.523,1.523,0,0,0-3.047,0v9.791a1.523,1.523,0,0,0,1.523,1.523h9.791a1.523,1.523,0,1,0,0-3.047Z" transform="translate(-241.003 -144.601)"/>
      </g>
    </g>
  </g>
</svg>
