<svg xmlns="http://www.w3.org/2000/svg" xmlns:xlink="http://www.w3.org/1999/xlink" width="42" height="42" viewBox="0 0 42 42">
  <defs>
    <linearGradient id="linear-gradient" x1="0.084" y1="0.916" x2="0.916" y2="0.084" gradientUnits="objectBoundingBox">
      <stop offset="0" stop-color="#ffd600"/>
      <stop offset="0.5" stop-color="#ff0100"/>
      <stop offset="1" stop-color="#d800b9"/>
    </linearGradient>
    <linearGradient id="linear-gradient-2" x1="0.146" y1="0.854" x2="0.854" y2="0.146" gradientUnits="objectBoundingBox">
      <stop offset="0" stop-color="#ff6400"/>
      <stop offset="0.5" stop-color="#ff0100"/>
      <stop offset="1" stop-color="#fd0056"/>
    </linearGradient>
    <linearGradient id="linear-gradient-3" x1="0.146" y1="0.854" x2="0.854" y2="0.146" gradientUnits="objectBoundingBox">
      <stop offset="0" stop-color="#f30072"/>
      <stop offset="1" stop-color="#e50097"/>
    </linearGradient>
  </defs>
  <g id="instagram-t" transform="translate(0 0)">
    <path id="Path_120" data-name="Path 120" d="M41.874,12.342a15.417,15.417,0,0,0-.976-5.1,10.292,10.292,0,0,0-2.422-3.72A10.3,10.3,0,0,0,34.755,1.1a15.414,15.414,0,0,0-5.1-.975C27.418.024,26.7,0,21,0s-6.419.024-8.658.126a15.419,15.419,0,0,0-5.1.976,10.292,10.292,0,0,0-3.72,2.422A10.294,10.294,0,0,0,1.1,7.244a15.416,15.416,0,0,0-.975,5.1C.024,14.581,0,15.3,0,21s.024,6.419.127,8.658a15.413,15.413,0,0,0,.976,5.1,10.291,10.291,0,0,0,2.422,3.719A10.289,10.289,0,0,0,7.244,40.9a15.409,15.409,0,0,0,5.1.976c2.24.1,2.955.126,8.658.126s6.419-.024,8.658-.126a15.411,15.411,0,0,0,5.1-.976A10.736,10.736,0,0,0,40.9,34.755a15.412,15.412,0,0,0,.976-5.1C41.975,27.418,42,26.7,42,21s-.024-6.419-.126-8.658Zm-3.78,17.144a11.619,11.619,0,0,1-.723,3.9,6.954,6.954,0,0,1-3.986,3.986,11.619,11.619,0,0,1-3.9.723c-2.214.1-2.878.122-8.486.122s-6.272-.021-8.486-.122a11.623,11.623,0,0,1-3.9-.723A6.508,6.508,0,0,1,6.2,35.8a6.505,6.505,0,0,1-1.571-2.414,11.619,11.619,0,0,1-.723-3.9c-.1-2.214-.122-2.878-.122-8.486s.021-6.272.122-8.486a11.627,11.627,0,0,1,.723-3.9A6.511,6.511,0,0,1,6.2,6.2,6.5,6.5,0,0,1,8.615,4.629a11.617,11.617,0,0,1,3.9-.723c2.214-.1,2.878-.122,8.486-.122h0c5.607,0,6.272.021,8.486.123a11.621,11.621,0,0,1,3.9.723A6.511,6.511,0,0,1,35.8,6.2,6.5,6.5,0,0,1,37.37,8.615a11.608,11.608,0,0,1,.723,3.9c.1,2.214.122,2.878.122,8.486s-.021,6.272-.122,8.486Zm0,0" fill="url(#linear-gradient)"/>
    <path id="Path_121" data-name="Path 121" d="M135.323,124.539a10.784,10.784,0,1,0,10.784,10.784A10.784,10.784,0,0,0,135.323,124.539Zm0,17.784a7,7,0,1,1,7-7A7,7,0,0,1,135.323,142.323Zm0,0" transform="translate(-114.323 -114.323)" fill="url(#linear-gradient-2)"/>
    <path id="Path_122" data-name="Path 122" d="M366.97,91.146a2.52,2.52,0,1,1-2.52-2.52A2.52,2.52,0,0,1,366.97,91.146Zm0,0" transform="translate(-332.24 -81.355)" fill="url(#linear-gradient-3)"/>
  </g>
</svg>
