<svg xmlns="http://www.w3.org/2000/svg" width="52" height="59.164" viewBox="0 0 52 59.164">
  <g id="location" transform="translate(-31 -2)">
    <g id="Group_241" data-name="Group 241" transform="translate(31 2)">
      <g id="Group_240" data-name="Group 240" transform="translate(0)">
        <path id="Path_255" data-name="Path 255" d="M66.877,39.091c6.3-9.879,5.5-8.647,5.686-8.9a18.924,18.924,0,0,0,3.5-11A19.067,19.067,0,1,0,41.538,30.327l5.585,8.764C41.151,40.008,31,42.743,31,48.764c0,2.195,1.433,5.323,8.258,7.761A54.71,54.71,0,0,0,57,59.164c12.483,0,26-3.521,26-10.4C83,42.742,72.861,40.01,66.877,39.091ZM44.433,28.42q-.029-.045-.06-.088a15.6,15.6,0,1,1,25.379-.175c-.167.22.7-1.133-12.752,19.982ZM57,55.7c-13.635,0-22.533-4.008-22.533-6.933,0-1.966,4.572-5.2,14.7-6.46L55.538,52.3a1.733,1.733,0,0,0,2.923,0L64.829,42.3c10.132,1.26,14.7,4.493,14.7,6.46C79.533,51.665,70.715,55.7,57,55.7Z" transform="translate(-31)"/>
      </g>
    </g>
    <g id="Group_243" data-name="Group 243" transform="translate(48.333 10.516)">
      <g id="Group_242" data-name="Group 242" transform="translate(0)">
        <path id="Path_256" data-name="Path 256" d="M189.667,91a8.667,8.667,0,1,0,8.667,8.667A8.676,8.676,0,0,0,189.667,91Zm0,13.867a5.2,5.2,0,1,1,5.2-5.2A5.206,5.206,0,0,1,189.667,104.867Z" transform="translate(-181 -91)"/>
      </g>
    </g>
  </g>
</svg>
