<svg xmlns="http://www.w3.org/2000/svg" width="16.783" height="24.5" viewBox="0 0 16.783 24.5">
  <path id="Path_16" data-name="Path 16" d="M18.685,9.167H17.636V6.833c0-3.22-2.35-5.833-5.245-5.833S7.147,3.613,7.147,6.833V9.167H6.1A2.232,2.232,0,0,0,4,11.5V23.167A2.232,2.232,0,0,0,6.1,25.5H18.685a2.232,2.232,0,0,0,2.1-2.333V11.5A2.232,2.232,0,0,0,18.685,9.167Zm-6.294,10.5a2.232,2.232,0,0,1-2.1-2.333A2.232,2.232,0,0,1,12.392,15a2.232,2.232,0,0,1,2.1,2.333A2.232,2.232,0,0,1,12.392,19.667Zm3.252-10.5H9.14V6.833a3.452,3.452,0,0,1,3.252-3.617,3.452,3.452,0,0,1,3.252,3.617Z" transform="translate(-4 -1)" fill="#7d7d7d"/>
</svg>
