<svg id="Master" xmlns="http://www.w3.org/2000/svg" width="69" height="45" viewBox="0 0 69 45">
  <g id="Group_143" data-name="Group 143">
    <path id="Path_210" data-name="Path 210" d="M1,45H70V0H1Z" transform="translate(-1)" fill="#265697"/>
    <path id="Path_211" data-name="Path 211" d="M47,0h0" transform="translate(22)" fill="#265697"/>
  </g>
  <path id="path2268" d="M56,21.4c0,10.5-7.95,18.9-18,18.9S20,31.9,20,21.4h0C20,10.9,27.95,2.5,38,2.5c9.9,0,18,8.55,18,18.9Z" transform="translate(8.5 1.25)" fill="#dfac16"/>
  <path id="path1350" d="M21.85,2.55C11.95,2.7,4,11.1,4,21.45c0,10.5,7.95,18.9,18,18.9A18.067,18.067,0,0,0,34.15,35.4h0a26.116,26.116,0,0,0,1.8-2.1h-3.6A21.942,21.942,0,0,1,31,31.35h6.3a9.164,9.164,0,0,0,1.05-2.1h-8.4c-.3-.6-.45-1.35-.75-1.95h9.9a20.046,20.046,0,0,0,.9-6,18.619,18.619,0,0,0-.45-4.05H28.6c.15-.6.3-1.35.45-1.95h9.9a18.193,18.193,0,0,0-.75-2.1H29.8a12.4,12.4,0,0,1,1.05-1.95h6.3A21.942,21.942,0,0,0,35.8,9.3H32.2c.6-.6,1.2-1.35,1.8-1.95A17.414,17.414,0,0,0,22,2.4l-.15.15Z" transform="translate(0.5 1.2)" fill="#bf3126"/>
  <path id="path4157" d="M21.25,21.35l.3-1.65H21.1c-.6,0-.75-.3-.75-.6l.45-3.45h1.05l.3-1.95h-.9l.15-1.2H19.45s-1.05,6.6-1.05,7.35c0,1.2.6,1.65,1.5,1.65.6,0,1.05-.15,1.35-.15Z" transform="translate(7.7 6.25)" fill="#fff"/>
  <path id="path4155" d="M20.7,17.75c0,2.85,1.8,3.45,3.3,3.45a6.159,6.159,0,0,0,2.1-.3l.3-1.95a6.143,6.143,0,0,1-2.1.45c-2.1,0-1.65-1.65-1.65-1.65h3.9a14.519,14.519,0,0,0,.3-1.8,2.544,2.544,0,0,0-2.7-2.85c-2.1,0-3.45,2.25-3.45,4.65ZM24,14.9c1.05,0,.9,1.2.9,1.35H22.8c0-.15.15-1.35,1.2-1.35Z" transform="translate(8.85 6.55)" fill="#fff"/>
  <path id="path4151" d="M32.75,21.65l.3-2.25a4.489,4.489,0,0,1-1.65.45c-1.35,0-1.95-1.05-1.95-2.25,0-2.4,1.2-3.75,2.4-3.75a3.138,3.138,0,0,1,1.8.6l.3-2.1a7.426,7.426,0,0,0-2.1-.45c-2.25,0-4.35,2.1-4.35,5.85,0,2.55,1.2,4.2,3.45,4.2.75-.15,1.8-.3,1.8-.3Z" transform="translate(12.25 5.95)" fill="#fff"/>
  <path id="path4149" d="M14.5,13.1a6.727,6.727,0,0,0-2.4.45l-.3,1.8a6.159,6.159,0,0,1,2.1-.3c.75,0,1.2.15,1.2.6v.45h-.75c-1.65,0-3.45.75-3.45,3,0,1.8,1.05,2.1,1.8,2.1a2.371,2.371,0,0,0,1.95-.9v.75H16.3l.75-5.55a2.3,2.3,0,0,0-2.55-2.4Zm.3,4.5c0,.3-.15,1.95-1.35,1.95a.7.7,0,0,1-.75-.75c0-.6.3-1.2,1.65-1.2Z" transform="translate(3.95 6.55)" fill="#fff"/>
  <path id="path4145" d="M16.9,21.15a2.431,2.431,0,0,0,2.85-2.55c0-2.55-2.25-1.95-2.25-3,0-.45.45-.6,1.05-.6.3,0,1.35.15,1.35.15l.3-1.8a10.141,10.141,0,0,0-1.8-.15c-1.35,0-2.85.6-2.85,2.55,0,2.25,2.4,2.1,2.4,3,0,.6-.75.75-1.2.75a4.951,4.951,0,0,1-1.65-.3L14.8,21a8.293,8.293,0,0,0,2.1.15Z" transform="translate(5.9 6.6)" fill="#fff"/>
  <path id="path4139" d="M43.3,12l-.45,2.7a2.566,2.566,0,0,0-1.8-1.05c-1.8,0-3.15,2.25-3.15,4.8,0,1.65.75,3.3,2.4,3.3a2.25,2.25,0,0,0,1.8-.9l-.15.75h1.8l1.5-9.6H43.3Zm-.9,5.25c0,1.05-.45,2.55-1.5,2.55-.75,0-1.05-.6-1.05-1.65,0-1.5.6-2.55,1.5-2.55.75,0,1.05.6,1.05,1.65Z" transform="translate(17.45 6)" fill="#fff"/>
  <path id="path4133" d="M7.05,21.6l1.2-7.2.15,7.2H9.75l2.4-7.2L11.1,21.6h1.95l1.5-9.6h-3L9.6,18l-.15-6H6.6L5.1,21.6Z" transform="translate(1.05 6)" fill="#fff"/>
  <path id="path4131" d="M26.7,21.15c.6-3.3.6-6,1.95-5.55a5.589,5.589,0,0,1,.75-2.4h-.45c-.9,0-1.5,1.2-1.5,1.2l.15-1.2H25.8L24.6,21h2.1v.15Z" transform="translate(10.8 6.6)" fill="#fff"/>
  <path id="path4149_1_" d="M35.1,13.1a6.727,6.727,0,0,0-2.4.45l-.3,1.8a6.159,6.159,0,0,1,2.1-.3c.75,0,1.2.15,1.2.6v.45h-.75c-1.65,0-3.45.75-3.45,3,0,1.8,1.05,2.1,1.8,2.1a2.371,2.371,0,0,0,1.95-.9v.75H36.9l.75-5.55c.15-2.25-1.8-2.4-2.55-2.4Zm.45,4.5c0,.3-.15,1.95-1.35,1.95a.7.7,0,0,1-.75-.75c0-.6.3-1.2,1.65-1.2Z" transform="translate(14.25 6.55)" fill="#fff"/>
  <path id="path4131_1_" d="M37.4,21.15c.6-3.3.6-6,1.95-5.55a5.589,5.589,0,0,1,.75-2.4h-.45c-.9,0-1.5,1.2-1.5,1.2l.15-1.2H36.5L35.3,21h2.1v.15Z" transform="translate(16.15 6.6)" fill="#fff"/>
</svg>
