<svg xmlns="http://www.w3.org/2000/svg" width="41" height="41" viewBox="0 0 41 41">
  <g id="Group_26" data-name="Group 26" transform="translate(-1436 -175)">
    <g id="Ellipse_6" data-name="Ellipse 6" transform="translate(1436 175)" fill="none" stroke="#fff" stroke-width="1">
      <circle cx="20.5" cy="20.5" r="20.5" stroke="none"/>
      <circle cx="20.5" cy="20.5" r="20" fill="none"/>
    </g>
    <path id="heart" d="M16.862,0a6.408,6.408,0,0,0-5.233,2.724A6.408,6.408,0,0,0,6.4,0,6.771,6.771,0,0,0,0,6.783c0,3.522,1.988,7.149,5.751,10.489a30.938,30.938,0,0,0,5.7,4,.388.388,0,0,0,.356,0,30.941,30.941,0,0,0,5.7-4c3.764-3.341,5.753-6.968,5.753-10.489A6.771,6.771,0,0,0,16.862,0ZM11.629,20.491C10.205,19.705.775,14.216.775,6.783A5.977,5.977,0,0,1,6.4.775a5.632,5.632,0,0,1,4.9,2.865.4.4,0,0,0,.675,0,5.632,5.632,0,0,1,4.9-2.865,5.977,5.977,0,0,1,5.621,6.008c0,7.433-9.43,12.922-10.854,13.708Zm0,0" transform="translate(1445.624 185.63)" fill="#fff" stroke="#fff" stroke-width="1"/>
  </g>
</svg>
