<svg xmlns="http://www.w3.org/2000/svg" width="39" height="39" viewBox="0 0 39 39">
  <g id="Group_27" data-name="Group 27" transform="translate(-1519 -175)">
    <g id="Ellipse_7" data-name="Ellipse 7" transform="translate(1519 175)" fill="none" stroke="#fff" stroke-width="1">
      <circle cx="19.5" cy="19.5" r="19.5" stroke="none"/>
      <circle cx="19.5" cy="19.5" r="19" fill="none"/>
    </g>
    <g id="user" transform="translate(1528.476 183.461)">
      <g id="Group_18" data-name="Group 18" transform="translate(0 11.595)">
        <g id="Group_17" data-name="Group 17">
          <path id="Path_15" data-name="Path 15" d="M22.383,257.323a11.068,11.068,0,0,0-11.055,11.055.481.481,0,0,0,.961,0,10.094,10.094,0,1,1,20.187,0,.481.481,0,0,0,.961,0A11.067,11.067,0,0,0,22.383,257.323Z" transform="translate(-11.328 -257.323)" fill="#fff"/>
        </g>
      </g>
      <g id="Group_20" data-name="Group 20" transform="translate(5.768)">
        <g id="Group_19" data-name="Group 19">
          <path id="Path_16" data-name="Path 16" d="M144.615,0A5.287,5.287,0,1,0,149.9,5.287,5.293,5.293,0,0,0,144.615,0Zm0,9.613a4.326,4.326,0,1,1,4.326-4.326A4.331,4.331,0,0,1,144.615,9.613Z" transform="translate(-139.328)" fill="#fff"/>
        </g>
      </g>
    </g>
  </g>
</svg>
