<svg xmlns="http://www.w3.org/2000/svg" width="41" height="41" viewBox="0 0 41 41">
  <g id="Group_28" data-name="Group 28" transform="translate(-1602 -175)">
    <g id="Path_263" data-name="Path 263" transform="translate(1602 175)" fill="none">
      <path d="M20.5,0A20.5,20.5,0,1,1,0,20.5,20.5,20.5,0,0,1,20.5,0Z" stroke="none"/>
      <path d="M 20.5 1 C 17.86708068847656 1 15.31344032287598 1.51544189453125 12.91003036499023 2.532001495361328 C 10.58810043334961 3.514091491699219 8.502590179443359 4.920249938964844 6.711418151855469 6.711418151855469 C 4.920249938964844 8.502590179443359 3.514091491699219 10.58810043334961 2.532001495361328 12.91003036499023 C 1.51544189453125 15.31344032287598 1 17.86708068847656 1 20.5 C 1 23.13291931152344 1.51544189453125 25.68655967712402 2.532001495361328 28.08996963500977 C 3.514091491699219 30.41189956665039 4.920249938964844 32.49740982055664 6.711418151855469 34.28858184814453 C 8.502590179443359 36.07975006103516 10.58810043334961 37.48590850830078 12.91003036499023 38.46799850463867 C 15.31344032287598 39.48455810546875 17.86708068847656 40 20.5 40 C 23.13291931152344 40 25.68655967712402 39.48455810546875 28.08996963500977 38.46799850463867 C 30.41189956665039 37.48590850830078 32.49740982055664 36.07975006103516 34.28858184814453 34.28858184814453 C 36.07975006103516 32.49740982055664 37.48590850830078 30.41189956665039 38.46799850463867 28.08996963500977 C 39.48455810546875 25.68655967712402 40 23.13291931152344 40 20.5 C 40 17.86708068847656 39.48455810546875 15.31344032287598 38.46799850463867 12.91003036499023 C 37.48590850830078 10.58810043334961 36.07975006103516 8.502590179443359 34.28858184814453 6.711418151855469 C 32.49740982055664 4.920249938964844 30.41189956665039 3.514091491699219 28.08996963500977 2.532001495361328 C 25.68655967712402 1.51544189453125 23.13291931152344 1 20.5 1 M 20.5 0 C 31.82184028625488 0 41 9.178159713745117 41 20.5 C 41 31.82184028625488 31.82184028625488 41 20.5 41 C 9.178159713745117 41 0 31.82184028625488 0 20.5 C 0 9.178159713745117 9.178159713745117 0 20.5 0 Z" stroke="none" fill="#fff"/>
    </g>
    <g id="call" transform="translate(1611.363 185.032)">
      <g id="Group_16" data-name="Group 16" transform="translate(0 0)">
        <g id="Group_15" data-name="Group 15" transform="translate(0 0)">
          <path id="Path_11" data-name="Path 11" d="M23.033,18.472l-4.58-3.054a1.337,1.337,0,0,0-1.79.291l-1.334,1.715a.57.57,0,0,1-.731.154l-.254-.14a15.335,15.335,0,0,1-4-3.139,15.4,15.4,0,0,1-3.139-4l-.139-.254a.571.571,0,0,1,.151-.734L8.934,7.981a1.337,1.337,0,0,0,.291-1.79L6.171,1.612a1.33,1.33,0,0,0-1.792-.4L2.464,2.359a2.7,2.7,0,0,0-1.232,1.6c-.69,2.513-.171,6.849,6.217,13.238,5.081,5.081,8.864,6.448,11.465,6.448a6.68,6.68,0,0,0,1.772-.231,2.7,2.7,0,0,0,1.6-1.232l1.152-1.914A1.33,1.33,0,0,0,23.033,18.472Zm-.247,1.406-1.149,1.915a1.949,1.949,0,0,1-1.15.891c-2.32.637-6.372.109-12.5-6.023S1.322,6.477,1.959,4.157a1.952,1.952,0,0,1,.892-1.152L4.767,1.856a.577.577,0,0,1,.778.175L7.2,4.522,8.6,6.61a.58.58,0,0,1-.126.777L6.756,8.721a1.32,1.32,0,0,0-.35,1.694l.136.247a16,16,0,0,0,3.268,4.17A16.012,16.012,0,0,0,13.98,18.1l.248.136a1.32,1.32,0,0,0,1.694-.35l1.334-1.714a.581.581,0,0,1,.777-.126L22.611,19.1A.576.576,0,0,1,22.786,19.878Z" transform="translate(-1 -1.018)" fill="#fff" stroke="#fff" stroke-width="1"/>
          <path id="Path_12" data-name="Path 12" d="M283.005,70.078a6.417,6.417,0,0,1,6.41,6.41.377.377,0,1,0,.754,0,7.172,7.172,0,0,0-7.164-7.164.377.377,0,0,0,0,.754Z" transform="translate(-270.184 -66.306)" fill="#fff" stroke="#fff" stroke-width="1"/>
          <path id="Path_13" data-name="Path 13" d="M283.005,121.278a4.152,4.152,0,0,1,4.148,4.148.377.377,0,0,0,.754,0,4.907,4.907,0,0,0-4.9-4.9.377.377,0,0,0,0,.754Z" transform="translate(-270.184 -115.244)" fill="#fff" stroke="#fff" stroke-width="1"/>
          <path id="Path_14" data-name="Path 14" d="M283.005,172.478a1.888,1.888,0,0,1,1.885,1.885.377.377,0,0,0,.754,0,2.642,2.642,0,0,0-2.639-2.639.377.377,0,1,0,0,.754Z" transform="translate(-270.184 -164.181)" fill="#fff" stroke="#fff" stroke-width="1"/>
        </g>
      </g>
    </g>
  </g>
</svg>
