<svg xmlns="http://www.w3.org/2000/svg" width="52" height="50.463" viewBox="0 0 52 50.463">
  <g id="password" transform="translate(0 -7.194)">
    <g id="Group_235" data-name="Group 235" transform="translate(0 7.194)">
      <path id="Path_234" data-name="Path 234" d="M18.791,353.078a.746.746,0,0,0-1.015-.267l-1.859,1.079v-2.147a.737.737,0,1,0-1.474,0v2.147l-1.859-1.079a.742.742,0,0,0-.748,1.282l1.869,1.09-1.869,1.09a.742.742,0,1,0,.748,1.282l1.859-1.079v2.147a.737.737,0,1,0,1.474,0v-2.147l1.859,1.079a.742.742,0,1,0,.748-1.282l-1.869-1.09,1.869-1.09A.739.739,0,0,0,18.791,353.078Z" transform="translate(-10.245 -314.28)" fill="#5d5d5d"/>
      <path id="Path_235" data-name="Path 235" d="M143.07,357.187a.746.746,0,0,0,1.015.267l1.859-1.079v2.147a.737.737,0,1,0,1.474,0v-2.147l1.859,1.079a.742.742,0,1,0,.748-1.282l-1.869-1.09,1.869-1.09a.742.742,0,1,0-.748-1.282l-1.859,1.079v-2.147a.737.737,0,1,0-1.474,0v2.147l-1.859-1.068a.742.742,0,1,0-.748,1.282l1.869,1.09-1.869,1.079A.746.746,0,0,0,143.07,357.187Z" transform="translate(-127.698 -314.191)" fill="#5d5d5d"/>
      <path id="Path_236" data-name="Path 236" d="M131.5,457.372v1.3a.57.57,0,0,0,.566.566h8.749a.57.57,0,0,0,.566-.566v-1.3a.57.57,0,0,0-.566-.566h-8.749A.563.563,0,0,0,131.5,457.372Z" transform="translate(-117.453 -408.778)" fill="#5d5d5d"/>
      <path id="Path_237" data-name="Path 237" d="M157.823,19.362h-.064V16.457A9.221,9.221,0,0,0,148.583,7.2a9.047,9.047,0,0,0-8.877,9.026V16.5a.761.761,0,0,0,.758.758h2.425a.761.761,0,0,0,.758-.758v-.085a5.21,5.21,0,0,1,4.753-5.266,5.084,5.084,0,0,1,5.405,5.063v3.141h-7.477v.011h-6.911a2.383,2.383,0,0,0-2.318,2.371V34.873a2.384,2.384,0,0,0,2.382,2.382h18.33a2.384,2.384,0,0,0,2.382-2.382V21.744A2.368,2.368,0,0,0,157.823,19.362ZM150.068,28.9a.513.513,0,0,0-.235.481c.011.961.011,1.923,0,2.895h0a1.013,1.013,0,0,1-.545.972,1.129,1.129,0,0,1-1.688-.972V29.371a.5.5,0,0,0-.214-.459,2.2,2.2,0,0,1-.726-2.713,2.246,2.246,0,0,1,4.294.887A2.034,2.034,0,0,1,150.068,28.9Z" transform="translate(-122.455 -7.194)" fill="#5d5d5d"/>
      <path id="Path_238" data-name="Path 238" d="M262.9,457.372v1.3a.57.57,0,0,0,.566.566h8.749a.57.57,0,0,0,.566-.566v-1.3a.57.57,0,0,0-.566-.566h-8.749A.57.57,0,0,0,262.9,457.372Z" transform="translate(-234.817 -408.778)" fill="#5d5d5d"/>
      <path id="Path_239" data-name="Path 239" d="M274.47,357.187a.746.746,0,0,0,1.015.267l1.859-1.079v2.147a.737.737,0,0,0,1.474,0v-2.147l1.859,1.079a.742.742,0,1,0,.748-1.282l-1.869-1.09,1.869-1.09a.742.742,0,1,0-.748-1.282l-1.859,1.079v-2.147a.737.737,0,0,0-1.474,0v2.147l-1.859-1.079a.742.742,0,1,0-.748,1.282l1.869,1.09-1.869,1.09A.746.746,0,0,0,274.47,357.187Z" transform="translate(-245.062 -314.191)" fill="#5d5d5d"/>
      <path id="Path_240" data-name="Path 240" d="M403.615,456.806h-8.749a.57.57,0,0,0-.566.566v1.3a.57.57,0,0,0,.566.566h8.749a.57.57,0,0,0,.566-.566v-1.3A.57.57,0,0,0,403.615,456.806Z" transform="translate(-352.181 -408.778)" fill="#5d5d5d"/>
      <path id="Path_241" data-name="Path 241" d="M.566,459.241H9.315a.57.57,0,0,0,.566-.566v-1.3a.57.57,0,0,0-.566-.566H.566a.57.57,0,0,0-.566.566v1.3A.57.57,0,0,0,.566,459.241Z" transform="translate(0 -408.778)" fill="#5d5d5d"/>
      <path id="Path_242" data-name="Path 242" d="M405.93,357.187a.746.746,0,0,0,1.015.267l1.859-1.079v2.147a.737.737,0,0,0,1.474,0v-2.147l1.859,1.079a.742.742,0,1,0,.748-1.282l-1.869-1.09,1.869-1.09a.742.742,0,1,0-.748-1.282l-1.859,1.079v-2.147a.737.737,0,0,0-1.474,0v2.147l-1.859-1.079a.742.742,0,0,0-.748,1.282l1.869,1.09-1.869,1.09A.737.737,0,0,0,405.93,357.187Z" transform="translate(-362.476 -314.191)" fill="#5d5d5d"/>
    </g>
  </g>
</svg>
