<svg xmlns="http://www.w3.org/2000/svg" width="21.273" height="20.226" viewBox="0 0 21.273 20.226">
  <g id="Group_5" data-name="Group 5" transform="matrix(0.974, 0.225, -0.225, 0.974, 3.735, 0)">
    <path id="Path_3" data-name="Path 3" d="M18.067,12.185,15.55,9.868a1.738,1.738,0,0,0-2.787.579,1.744,1.744,0,0,1-1.978.993,7.483,7.483,0,0,1-4.675-4.3,1.483,1.483,0,0,1,1.079-1.82,1.492,1.492,0,0,0,.629-2.565L5.3.434a1.912,1.912,0,0,0-2.427,0L1.166,2.007c-1.708,1.655.18,6.041,4.405,9.93s8.99,5.71,10.788,4.055l1.708-1.572A1.557,1.557,0,0,0,18.067,12.185Z" transform="translate(-0.539 0)" fill="#5d5d5d"/>
  </g>
</svg>
