<svg xmlns="http://www.w3.org/2000/svg" width="52" height="50.7" viewBox="0 0 52 50.7">
  <path id="Path_254" data-name="Path 254" d="M51.132,32.2c-2.793-8.986-11.658-15.119-22.284-15.3V6.393a.934.934,0,0,0-.911-.911.979.979,0,0,0-.546.182L.372,25.215A.887.887,0,0,0,.19,26.491l.182.182L27.392,46.1a.942.942,0,0,0,1.275-.182.979.979,0,0,0,.182-.546V34.93c6.558,0,12.083,3.1,14.026,7.772,1.639,4.007.3,8.318-3.582,11.9a.883.883,0,0,0-.061,1.275.975.975,0,0,0,.668.3h.729A.689.689,0,0,0,41.114,56C50.04,50.11,53.865,40.942,51.132,32.2Z" transform="translate(0 -5.482)"/>
</svg>
