<svg xmlns="http://www.w3.org/2000/svg" width="69.917" height="45.598" viewBox="0 0 69.917 45.598">
  <g id="rocket" transform="translate(-0.1)">
    <rect id="Rectangle_219" data-name="Rectangle 219" width="69.917" height="45.598" transform="translate(0.1)" fill="#8b3392"/>
    <path id="Path_136" data-name="Path 136" d="M37.871,6.812l-8.208,8.664.456,4.864L31.64,17l4.712,6.384L43.039,2.1,21,11.676l5.928,3.192Z" transform="translate(10.867 1.092)" fill="#fff"/>
    <g id="Group_116" data-name="Group 116" transform="translate(27.664 23.103)">
      <path id="Path_137" data-name="Path 137" d="M32.165,15.2H23.5c-6.688,1.064-7.3,11.248-.152,12.615h8.816V18.7c2.888.152,3.5,3.952,1.368,5.32.456.608,2.128,2.584,2.128,2.584C40.221,22.344,37.637,15.656,32.165,15.2Zm-3.344,9.12H23.958c-3.04.152-3.952-5.016-.3-5.776h5.168V24.32Z" transform="translate(-18.235 -15.2)" fill="#fff"/>
    </g>
    <path id="Path_138" data-name="Path 138" d="M43.04,21.853H39.848L38.48,25.2h4.1a.608.608,0,1,1,0,1.216H35.44V20.637H46.383v-3.5H44.711c-.456-7.144-8.512-7.3-10.64-3.5.456.3,2.432,2.128,2.432,2.128a2.783,2.783,0,0,1,5.168,1.216H32.4V29.6H42.888a3.567,3.567,0,0,0,3.648-3.5A4.392,4.392,0,0,0,43.04,21.853Z" transform="translate(16.794 5.81)" fill="#fff"/>
    <path id="Path_139" data-name="Path 139" d="M20.97,15.2H16.714c-1.368,1.672-3.648,8.664.912,13.831,0,0,1.976-1.824,2.432-2.128A8.683,8.683,0,0,1,20.97,15.2Z" transform="translate(7.705 7.903)" fill="#fff"/>
    <circle id="Ellipse_12" data-name="Ellipse 12" cx="2.736" cy="2.736" r="2.736" transform="translate(12.563 34.351)" fill="#fff"/>
    <g id="Group_118" data-name="Group 118" transform="translate(6.993 23.103)">
      <g id="Group_117" data-name="Group 117">
        <path id="Path_140" data-name="Path 140" d="M9.9,15.2c-6.688,1.064-7.3,11.248-.152,12.615H9.9a3.306,3.306,0,0,1,3.04-2.128,3.238,3.238,0,0,1,3.04,2.128h2.736V15.2Zm5.472,9.12H10.51c-3.04.152-3.952-5.016-.3-5.776h5.168V24.32Z" transform="translate(-4.635 -15.2)" fill="#fff"/>
      </g>
    </g>
    <g id="Group_124" data-name="Group 124" transform="translate(12.411 17.023)">
      <g id="Group_120" data-name="Group 120" transform="translate(0 0.152)">
        <g id="Group_119" data-name="Group 119">
          <path id="Path_141" data-name="Path 141" d="M11.24,14.34a1.61,1.61,0,0,0-.152-3.04H8.2v4.408H9.416V14.34l1.368,1.368h1.672Zm-.152-1.52a.327.327,0,0,1-.3.3H9.416v-.608h1.368c.152,0,.3,0,.3.3Z" transform="translate(-8.2 -11.3)" fill="#fff"/>
        </g>
      </g>
      <g id="Group_122" data-name="Group 122" transform="translate(4.104)">
        <g id="Group_121" data-name="Group 121">
          <path id="Path_142" data-name="Path 142" d="M13.028,11.2A2.208,2.208,0,0,0,10.9,13.48a2.208,2.208,0,0,0,2.128,2.28,2.208,2.208,0,0,0,2.128-2.28A2.208,2.208,0,0,0,13.028,11.2Zm0,3.192a.981.981,0,0,1-.912-.912.876.876,0,0,1,.912-.912.981.981,0,0,1,.912.912C14.092,14.088,13.636,14.392,13.028,14.392Z" transform="translate(-10.9 -11.2)" fill="#fff"/>
        </g>
      </g>
      <path id="Path_143" data-name="Path 143" d="M20.976,12.516h1.976V11.3H21.28a2.28,2.28,0,1,0,0,4.56h1.672V14.644H20.976c-.3,0-.456-.152-.76-.3H22.8V13.124H20.216A.776.776,0,0,1,20.976,12.516Z" transform="translate(-2.585 -11.148)" fill="#fff"/>
      <g id="Group_123" data-name="Group 123" transform="translate(8.664 0.152)">
        <path id="Path_144" data-name="Path 144" d="M16.028,14.34a.981.981,0,0,1-.912-.912h0a.981.981,0,0,1,.912-.912h1.824V11.3H16.18a2.28,2.28,0,0,0,0,4.56h1.672V14.644l-1.824-.3Z" transform="translate(-13.9 -11.3)" fill="#fff"/>
      </g>
      <path id="Path_145" data-name="Path 145" d="M25.8,11.3H21.7v1.216h1.52v3.04h1.216v-3.04H25.8Z" transform="translate(-1.181 -11.148)" fill="#fff"/>
      <path id="Path_146" data-name="Path 146" d="M18.624,13.428,20.6,11.3H19.08l-1.216,1.216V11.3H16.8v4.256h1.064V14.34l1.216,1.216h1.672Z" transform="translate(-3.729 -11.148)" fill="#fff"/>
    </g>
    <g id="Group_125" data-name="Group 125" transform="translate(42.962 36.479)">
      <path id="Path_147" data-name="Path 147" d="M29.212,25c-.152,0-.3.152-.456.3s-.152.3-.152.608c0,.152,0,.152.152.3a.531.531,0,0,0,.152.3.149.149,0,0,0,.152-.152l.152.3c-.152,0-.152.152-.3.152a.558.558,0,0,1-.456-.152c-.152,0-.152-.152-.152-.3v-.456A1.314,1.314,0,0,1,28.756,25l.3-.3h.3l-.152.3Z" transform="translate(-28.3 -23.636)" fill="#fff"/>
      <path id="Path_148" data-name="Path 148" d="M30.776,25v1.824h-.3v-.3c0-.152,0-.152-.152-.3s-.152-.152-.3-.152c-.152-.152-.152-.152-.3-.152s-.152,0-.3.152h0a.149.149,0,0,0,.152.152h.152a.471.471,0,0,0,.3-.152l.152.3c-.456.3-.456.3-.608.3s-.152,0-.3-.152c-.152,0-.152-.152-.152-.3v-.152c0-.152.152-.3.3-.456s.152-.152.3-.152h0a17129.28,17129.28,0,0,0-.3-.3h-.456V25H28.8v-.3h2.28V25Zm-.3,0h-.76a.79.79,0,0,1,.3.608c.152,0,.3.152.456.3Z" transform="translate(-28.04 -23.636)" fill="#fff"/>
      <path id="Path_149" data-name="Path 149" d="M30.808,25v1.824h-.3V25h-.3v-.3h.76V25Z" transform="translate(-27.312 -23.636)" fill="#fff"/>
      <path id="Path_150" data-name="Path 150" d="M32.22,25H30.7v-.3h1.976V25h-.152v1.824h-.3q0-.228-.456-.456c-.152-.152-.3-.152-.456-.3a.558.558,0,0,0-.456-.152l-.152-.3c.152,0,.3-.152.608-.3C31.612,25.308,31.764,25.156,32.22,25Zm0,.3a.149.149,0,0,0-.152.152c-.152,0-.3.152-.608.3h-.152c.3.152.456.3.76.456h.152v-.912Z" transform="translate(-27.052 -23.636)" fill="#fff"/>
      <path id="Path_151" data-name="Path 151" d="M32.508,25v1.824h-.3V25h-.3v-.3h.76V25Z" transform="translate(-26.428 -23.636)" fill="#fff"/>
      <path id="Path_152" data-name="Path 152" d="M32.4,25.212v-.3h1.064a.531.531,0,0,0-.152-.3H32.7l-.152.152-.152-.3a.558.558,0,0,1,.456-.152h.3c.152,0,.152,0,.3.152a.79.79,0,0,1,.3.608h.152v.3H32.4Zm1.216,2.128c-.152-.152-.3-.3-.456-.3s-.152-.152-.456-.152c-.152,0-.152-.152-.3-.152v-.456h.76c.152-.152.3-.152.3-.3s0-.152-.152-.152a.149.149,0,0,1-.152-.152h-.152a.149.149,0,0,0-.152.152c0,.152.152.152.3.152l-.152.3c-.152,0-.152,0-.152-.152a.471.471,0,0,1-.152-.3.531.531,0,0,1,.152-.3c.152,0,.3-.152.456-.152h.152a.149.149,0,0,1,.152.152.79.79,0,0,1,.3.608c0,.152-.152.3-.152.456a.558.558,0,0,1-.456.152.531.531,0,0,0,.3.152l.456.456Z" transform="translate(-26.168 -23.844)" fill="#fff"/>
      <path id="Path_153" data-name="Path 153" d="M35.632,25.056V26.88h-.3v-.76a.149.149,0,0,0-.152-.152l-.152-.152a.149.149,0,0,0-.152.152.149.149,0,0,1-.152.152h-.3c0-.152,0-.152-.152-.3a.149.149,0,0,0-.152-.152H33.96l-.152.152v.152h0a.327.327,0,0,0,.3.3h.152l-.152.456H33.96a.558.558,0,0,1-.456-.152.531.531,0,0,1-.152-.3v-.3a.537.537,0,0,1,.608-.608c.152,0,.3.152.456.3.152-.152.3-.3.456-.3s.152,0,.152.152V24.9H33.2v-.3h2.432v.456Z" transform="translate(-25.752 -23.688)" fill="#fff"/>
      <path id="Path_154" data-name="Path 154" d="M37.02,25H35.5v-.3h2.128V25h-.152v1.824h-.3q0-.228-.456-.456c-.152-.152-.3-.152-.456-.3a.558.558,0,0,0-.456-.152l-.152-.3c.152,0,.3-.152.608-.3A2.568,2.568,0,0,0,37.02,25Zm0,.3a.149.149,0,0,0-.152.152c-.152,0-.3.152-.608.3h-.152c.3.152.456.3.76.456h.152v-.912Z" transform="translate(-24.556 -23.636)" fill="#fff"/>
      <path id="Path_155" data-name="Path 155" d="M37.508,25a.558.558,0,0,0-.152.456,1.515,1.515,0,0,0,.152.608c0,.152.152.3.152.456s-.152.3-.3.456h-.3v-.3a.327.327,0,0,0,.3-.3c0-.152,0-.152-.152-.456a.76.76,0,0,1,0-.912h-.3v-.3h.912V25Z" transform="translate(-23.829 -23.636)" fill="#fff"/>
      <path id="Path_156" data-name="Path 156" d="M38.008,25v1.824h-.3V25h-.3v-.3h.76V25Z" transform="translate(-23.569 -23.636)" fill="#fff"/>
      <path id="Path_157" data-name="Path 157" d="M38.508,25.816a.647.647,0,0,1-.456-1.064c.152-.152.152-.152.456-.152.152,0,.3.152.456.3v.3c0,.152,0,.3-.152.3C38.812,25.816,38.66,25.816,38.508,25.816Zm.456,1.216a5.787,5.787,0,0,1-.912-.76v-.456a4.521,4.521,0,0,1,1.216,1.064v.3Zm-.456-1.824h0c-.152,0-.3,0-.3.152v.152l.152.152h0a.149.149,0,0,0,.152-.152C38.66,25.36,38.66,25.208,38.508,25.208Z" transform="translate(-23.309 -23.688)" fill="#fff"/>
      <path id="Path_158" data-name="Path 158" d="M40.98,24.76a2.021,2.021,0,0,0-1.064-.456.79.79,0,0,0-.608.3c0,.152-.152.152-.152.3h.3v.3h-.3V27.04h-.3V25.216H38.7v-.3h.152A1.075,1.075,0,0,1,39.764,24h.3a.914.914,0,0,1,.608.152c.152,0,.3.152.608.3Z" transform="translate(-22.893 -24)" fill="#fff"/>
      <path id="Path_159" data-name="Path 159" d="M40.52,25h0a.558.558,0,0,1,.456.152c.152.152.3.3.3.456s0,.152-.152.3-.152.152-.3.152h-.3v-.3h.152c.152,0,.3,0,.3-.152s-.152-.3-.456-.3v1.52h-.3c0-.152-.152-.152-.152-.3a8564.479,8564.479,0,0,0-.3-.3l-.152-.152h-.152a.531.531,0,0,1-.3-.152l-.152-.3c.152,0,.3-.152.456-.3a.471.471,0,0,0,.3-.152.531.531,0,0,1,.3-.152H39v-.3h2.432V25Zm-.3.456a.531.531,0,0,1-.3.152l-.152.152-.152.152.152.152.3.3.152-.912Z" transform="translate(-22.737 -23.636)" fill="#fff"/>
      <path id="Path_160" data-name="Path 160" d="M41.108,25.816a.647.647,0,0,1-.456-1.064c.152-.152.152-.152.456-.152.152,0,.3.152.456.3v.3c0,.152,0,.3-.152.3C41.412,25.816,41.26,25.816,41.108,25.816Zm.456,1.216a5.787,5.787,0,0,1-.912-.76v-.456a4.521,4.521,0,0,1,1.216,1.064v.3Zm-.3-1.824h0c-.152,0-.3,0-.3.152v.152l.152.152h0a.149.149,0,0,0,.152-.152A.211.211,0,0,0,41.26,25.208Z" transform="translate(-21.957 -23.688)" fill="#fff"/>
    </g>
    <g id="Group_133" data-name="Group 133" transform="translate(18.947 37.39)">
      <path id="Path_161" data-name="Path 161" d="M15.8,26.3l.608.152.3-.152-.76-.3Z" transform="translate(-10.784 -23.872)" fill="#fff"/>
      <g id="Group_126" data-name="Group 126">
        <path id="Path_162" data-name="Path 162" d="M17.668,25.056V24.6H12.652v.456h.76v.912h.76a.531.531,0,0,1,.3-.152v.3a.327.327,0,0,1-.3.3H13.108s-.152,0-.152-.3v-.912H12.5v1.064c0,.152,0,.456.3.456h1.368a.685.685,0,0,0,.456-.456V25.208h-.3c0,.152,0,.3-.152.3h-.456V24.9h1.216v1.672h.456V24.9h.456v1.672h1.368a.485.485,0,0,0,.456-.456V25.056h-.3c0,.152,0,.3-.152.3H16.3V24.9l1.368.152Zm-.608.912.152-.152v.456a.531.531,0,0,1-.152.3h-.912v-.608Z" transform="translate(-12.5 -24.6)" fill="#fff"/>
      </g>
      <rect id="Rectangle_220" data-name="Rectangle 220" width="0.912" height="0.456" transform="translate(5.624 1.064)" fill="#fff"/>
      <g id="Group_127" data-name="Group 127" transform="translate(6.992 0.152)">
        <path id="Path_163" data-name="Path 163" d="M17.1,24.7v.456h1.368v.152H17.1v.912c0,.3.152.608.456.608h1.216V25.156h.3v1.672h.456V24.7Zm1.368,1.824h-.912c-.152,0-.152-.152-.152-.3v-.456h1.064Z" transform="translate(-17.1 -24.7)" fill="#fff"/>
      </g>
      <path id="Path_164" data-name="Path 164" d="M19.9,25h1.672v.152h-.456c0,.152-.3.3-.3,0H19.9V26.22c0,.152,0,.456.3.456h.76v-.3h-.456a.149.149,0,0,1-.152-.152v-.608h.456v.3h.456v-.3c0-.152.456-.152.456,0v1.064h.456v-1.52h.3v1.672h.456V24.7H20.2V25Z" transform="translate(-8.652 -24.548)" fill="#fff"/>
      <g id="Group_129" data-name="Group 129" transform="translate(9.728 0.304)">
        <g id="Group_128" data-name="Group 128">
          <path id="Path_165" data-name="Path 165" d="M19.812,24.8H18.9v.608a.485.485,0,0,0,.456.456h.76V25.1A.327.327,0,0,0,19.812,24.8Zm-.152.456c-.152,0-.3,0-.3-.152s.152-.152.3-.152.3,0,.3.152A.471.471,0,0,1,19.66,25.256Z" transform="translate(-18.9 -24.8)" fill="#fff"/>
        </g>
      </g>
      <path id="Path_166" data-name="Path 166" d="M19,25.5v.456l1.064.456v-.456Z" transform="translate(-9.12 -24.132)" fill="#fff"/>
      <g id="Group_131" data-name="Group 131" transform="translate(18.999 0.304)">
        <g id="Group_130" data-name="Group 130">
          <path id="Path_167" data-name="Path 167" d="M25.912,24.8H25v.608a.485.485,0,0,0,.456.456h.76V25.1A.327.327,0,0,0,25.912,24.8Zm-.3.456c-.152,0-.3,0-.3-.152s.152-.152.3-.152.3,0,.3.152S25.76,25.256,25.608,25.256Z" transform="translate(-25 -24.8)" fill="#fff"/>
        </g>
      </g>
      <path id="Path_168" data-name="Path 168" d="M25,25.5v.456l1.216.456v-.456Z" transform="translate(-6.001 -24.132)" fill="#fff"/>
      <path id="Path_169" data-name="Path 169" d="M27.824,25.308v-.152h.76V24.7H26v.456h1.368v.152H26v.912c0,.3.152.608.456.608h1.216V25.764h.456v.152c0,.152,0,.152-.152.152h-.152v.3h.3a.531.531,0,0,0,.3-.152v-.912Zm-.456,1.216h-.912c-.152,0-.152-.152-.152-.3v-.456h1.064v.76Z" transform="translate(-5.481 -24.548)" fill="#fff"/>
      <g id="Group_132" data-name="Group 132" transform="translate(15.199)">
        <path id="Path_170" data-name="Path 170" d="M22.5,24.752v.456h1.368v.152H22.5v.912c0,.3.152.608.456.608h1.216V25.208h.456l-.152.3v.152h.3c.152,0,.152.152.152.456,0,.152,0,.3-.152.3h-.3v.3h.3c.152,0,.456,0,.456-.3,0-.76.152-1.064-.456-1.064l.152-.3h.608v1.672H26V24.6l-3.5.152Zm1.368,1.824h-.912c-.152,0-.152-.152-.152-.3v-.456h1.064Z" transform="translate(-22.5 -24.6)" fill="#fff"/>
      </g>
    </g>
  </g>
</svg>
