<svg xmlns="http://www.w3.org/2000/svg" width="40.524" height="40.692" viewBox="0 0 40.524 40.692">
  <path id="shopping-cart" d="M61.611,77.767a4.462,4.462,0,1,0,4.463,4.462,4.462,4.462,0,0,0-4.463-4.462Zm17.563,0a4.462,4.462,0,1,0,4.462,4.462A4.462,4.462,0,0,0,79.175,77.767Zm7.249-23.854H56.043l-.659-3.88A4.832,4.832,0,0,0,50.609,46H47.837a.969.969,0,0,0,0,1.938h2.772a2.9,2.9,0,0,1,2.866,2.42l3.508,20.667a4.832,4.832,0,0,0,4.777,4.034H82.412a.969.969,0,0,0,0-1.938H61.758a2.9,2.9,0,0,1-2.866-2.42l-.353-2.078H78.792a5.8,5.8,0,0,0,5.535-4.037l3.019-9.408a.969.969,0,0,0-.923-1.265Z" transform="translate(-46.868 -46)" fill="#fff"/>
</svg>
