<svg xmlns="http://www.w3.org/2000/svg" width="23.614" height="23.712" viewBox="0 0 23.614 23.712">
  <path id="shopping-cart" d="M55.459,64.511a2.6,2.6,0,1,0,2.6,2.6,2.6,2.6,0,0,0-2.6-2.6Zm10.234,0a2.6,2.6,0,1,0,2.6,2.6A2.6,2.6,0,0,0,65.694,64.511Zm4.224-13.9h-17.7l-.384-2.261A2.815,2.815,0,0,0,49.048,46H47.433a.565.565,0,1,0,0,1.129h1.615a1.689,1.689,0,0,1,1.67,1.41l2.044,12.043a2.816,2.816,0,0,0,2.783,2.35H67.58a.565.565,0,0,0,0-1.129H55.545a1.689,1.689,0,0,1-1.67-1.41l-.206-1.211h11.8A3.377,3.377,0,0,0,68.7,56.83l1.759-5.482a.565.565,0,0,0-.538-.737Z" transform="translate(-46.868 -46)" fill="#5d5d5d"/>
</svg>
