<svg xmlns="http://www.w3.org/2000/svg" width="52" height="52" viewBox="0 0 52 52">
  <path id="task-list" d="M49.969,0H2.031A2.031,2.031,0,0,0,0,2.031V49.969A2.031,2.031,0,0,0,2.031,52H49.969A2.031,2.031,0,0,0,52,49.969V2.031A2.031,2.031,0,0,0,49.969,0ZM47.938,47.938H4.063V4.063H47.938Zm-39.624-34a2.031,2.031,0,0,1,2.872-2.873L12.5,12.375l4.344-4.343A2.031,2.031,0,1,1,19.717,10.9l-5.78,5.78a2.031,2.031,0,0,1-2.873,0Zm15.655-1.575A2.031,2.031,0,0,1,26,10.327H42.25a2.031,2.031,0,1,1,0,4.062H26a2.031,2.031,0,0,1-2.031-2.031ZM8.314,41.217a2.031,2.031,0,0,1,2.872-2.873L12.5,39.659l4.344-4.343a2.031,2.031,0,1,1,2.872,2.873l-5.78,5.78a2.031,2.031,0,0,1-2.873,0Zm15.655-1.575A2.031,2.031,0,0,1,26,37.61H42.25a2.031,2.031,0,0,1,0,4.063H26a2.031,2.031,0,0,1-2.031-2.031ZM8.314,27.575A2.031,2.031,0,0,1,11.186,24.7L12.5,26.017l4.344-4.344a2.031,2.031,0,1,1,2.872,2.873l-5.78,5.78a2.032,2.032,0,0,1-2.873,0ZM23.969,26A2.031,2.031,0,0,1,26,23.969H42.25a2.031,2.031,0,0,1,0,4.063H26A2.031,2.031,0,0,1,23.969,26Zm0,0"/>
</svg>
