<svg xmlns="http://www.w3.org/2000/svg" width="52" height="46" viewBox="0 0 52 46">
  <g id="transaction" transform="translate(0 -29.539)">
    <g id="Group_237" data-name="Group 237" transform="translate(0 29.539)">
      <g id="Group_236" data-name="Group 236" transform="translate(0)">
        <path id="Path_252" data-name="Path 252" d="M51.828,51.841a1.5,1.5,0,0,0-1.328-.8H48.952A23.007,23.007,0,0,0,3.778,46.578L.264,51.689A1.5,1.5,0,0,0,1.5,54.039H3.048A23.007,23.007,0,0,0,48.222,58.5l3.514-5.111A1.5,1.5,0,0,0,51.828,51.841ZM40.142,66.681A20,20,0,0,1,6,52.539a1.5,1.5,0,0,0-1.5-1.5H4.352L6.4,48.063h0l.6-.875,1.692,2.461h0l.956,1.391H9.5a1.5,1.5,0,0,0-1.5,1.5,18,18,0,0,0,34.546,7.079l1.218,1.771a1.5,1.5,0,0,0,.108.139l0,0A20.1,20.1,0,0,1,40.142,66.681ZM13.736,51.689,11.55,48.509a15,15,0,0,1,29.376,2.53H39.5a1.5,1.5,0,0,0-1.236,2.35l2.187,3.181a15,15,0,0,1-29.376-2.53H12.5a1.5,1.5,0,0,0,1.236-2.35ZM45.6,57.015h0l-.6.876L43.308,55.43h0l-.956-1.391H42.5a1.5,1.5,0,0,0,1.5-1.5A18,18,0,0,0,9.454,45.46L8.236,43.689a1.5,1.5,0,0,0-.108-.139l0,0A20.1,20.1,0,0,1,11.858,38.4,20,20,0,0,1,46,52.539a1.5,1.5,0,0,0,1.5,1.5h.148Z" transform="translate(0 -29.539)"/>
      </g>
    </g>
    <g id="Group_239" data-name="Group 239" transform="translate(21.072 43.039)">
      <g id="Group_238" data-name="Group 238" transform="translate(0 0)">
        <path id="Path_253" data-name="Path 253" d="M213.545,170.463h-2.286a.787.787,0,0,1-.786-.786v-1.143a.786.786,0,0,1,.786-.786h2.286a.787.787,0,0,1,.786.786,1.5,1.5,0,1,0,3,0,3.79,3.79,0,0,0-3.429-3.768v-.8a1.5,1.5,0,0,0-3,0v.8a3.791,3.791,0,0,0-3.429,3.768v1.143a3.79,3.79,0,0,0,3.786,3.786h2.286a.787.787,0,0,1,.786.786v1.143a.787.787,0,0,1-.786.786h-2.286a.787.787,0,0,1-.786-.786,1.5,1.5,0,1,0-3,0,3.79,3.79,0,0,0,3.429,3.768v.8a1.5,1.5,0,0,0,3,0v-.8a3.791,3.791,0,0,0,3.429-3.768v-1.143A3.79,3.79,0,0,0,213.545,170.463Z" transform="translate(-207.473 -162.463)"/>
      </g>
    </g>
  </g>
</svg>
