<svg xmlns="http://www.w3.org/2000/svg" width="32" height="32" viewBox="0 0 32 32">
  <g id="Group_94" data-name="Group 94" transform="translate(-1517 -176)">
    <g id="Ellipse_7" data-name="Ellipse 7" transform="translate(1517 176)" fill="none" stroke="#000" stroke-width="1">
      <circle cx="16" cy="16" r="16" stroke="none"/>
      <circle cx="16" cy="16" r="15.5" fill="none"/>
    </g>
    <g id="user" transform="translate(1523.503 179.5)">
      <g id="Group_18" data-name="Group 18" transform="translate(0 10.325)">
        <g id="Group_17" data-name="Group 17">
          <path id="Path_15" data-name="Path 15" d="M21.172,257.323a9.855,9.855,0,0,0-9.844,9.844.428.428,0,0,0,.856,0,8.988,8.988,0,1,1,17.975,0,.428.428,0,0,0,.856,0A9.854,9.854,0,0,0,21.172,257.323Z" transform="translate(-11.328 -257.323)" stroke="#000" stroke-width="1"/>
        </g>
      </g>
      <g id="Group_20" data-name="Group 20" transform="translate(5.136)">
        <g id="Group_19" data-name="Group 19">
          <path id="Path_16" data-name="Path 16" d="M144.036,0a4.708,4.708,0,1,0,4.708,4.708A4.713,4.713,0,0,0,144.036,0Zm0,8.56a3.852,3.852,0,1,1,3.852-3.852A3.857,3.857,0,0,1,144.036,8.56Z" transform="translate(-139.328)" stroke="#000" stroke-width="1"/>
        </g>
      </g>
    </g>
  </g>
</svg>
