<svg id="user_fill" xmlns="http://www.w3.org/2000/svg" width="16.358" height="19.607" viewBox="0 0 16.358 19.607">
  <path id="Path_14" data-name="Path 14" d="M91.754,9.445a4.569,4.569,0,0,0,3.339-1.384,4.569,4.569,0,0,0,1.383-3.339,4.57,4.57,0,0,0-1.384-3.339,4.721,4.721,0,0,0-6.678,0,4.569,4.569,0,0,0-1.384,3.339,4.569,4.569,0,0,0,1.384,3.339A4.57,4.57,0,0,0,91.754,9.445Zm0,0" transform="translate(-83.699 0)" fill="#7d7d7d"/>
  <path id="Path_15" data-name="Path 15" d="M16.318,252.922a11.664,11.664,0,0,0-.159-1.239,9.761,9.761,0,0,0-.3-1.246,6.152,6.152,0,0,0-.512-1.162,4.383,4.383,0,0,0-.772-1.006,3.4,3.4,0,0,0-1.109-.7,3.833,3.833,0,0,0-1.416-.256,1.437,1.437,0,0,0-.768.325c-.23.15-.5.324-.8.516a4.582,4.582,0,0,1-1.035.456,4.018,4.018,0,0,1-2.531,0,4.57,4.57,0,0,1-1.034-.456c-.3-.19-.567-.364-.8-.516a1.435,1.435,0,0,0-.767-.326,3.828,3.828,0,0,0-1.416.257,3.4,3.4,0,0,0-1.109.7,4.384,4.384,0,0,0-.772,1.006A6.164,6.164,0,0,0,.5,250.438a9.785,9.785,0,0,0-.3,1.245,11.622,11.622,0,0,0-.159,1.239C.013,253.3,0,253.687,0,254.08a3.256,3.256,0,0,0,.967,2.463,3.481,3.481,0,0,0,2.492.909H12.9a3.48,3.48,0,0,0,2.492-.909,3.254,3.254,0,0,0,.967-2.463c0-.4-.013-.785-.04-1.158Zm0,0" transform="translate(0 -237.846)" fill="#7d7d7d"/>
</svg>
