<svg id="Visa" xmlns="http://www.w3.org/2000/svg" width="69" height="45" viewBox="0 0 69 45">
  <rect id="Rectangle-20" width="69" height="36" transform="translate(0 4.05)" fill="#f6f6f6"/>
  <g id="Group_145" data-name="Group 145">
    <path id="Path_214" data-name="Path 214" d="M0,9H69V0H0Z" fill="#265697"/>
    <path id="Path_215" data-name="Path 215" d="M46,0h0" transform="translate(23)" fill="#265697"/>
  </g>
  <path id="Rectangle-1_1_" d="M0,24v9H69V24Z" transform="translate(0 12)" fill="#d97b16"/>
  <path id="Shape" d="M37,9.15a10.8,10.8,0,0,0-4.35-.75c-4.8,0-8.25,2.55-8.25,6.3,0,2.7,2.4,4.2,4.2,5.1,1.95.9,2.55,1.5,2.55,2.4,0,1.2-1.5,1.8-3,1.8a9.642,9.642,0,0,1-4.65-1.05l-.45-.15-.75,4.35a12.732,12.732,0,0,0,5.4,1.05c5.1,0,8.4-2.55,8.55-6.6,0-2.1-1.35-3.75-4.05-5.1-1.65-.9-2.7-1.5-2.7-2.4,0-.75.9-1.65,2.85-1.65a7.579,7.579,0,0,1,3.6.75l.45.15.6-4.2" transform="translate(11.15 4.2)" fill="#265697"/>
  <path id="Shape_1_" d="M44.9,8.6H41.15a2.284,2.284,0,0,0-2.55,1.65L31.4,27.8h5.1a24.029,24.029,0,0,1,1.05-2.85h6.3c.15.75.6,2.85.6,2.85h4.5L44.9,8.6Zm-6,12.3c.45-1.05,1.95-5.4,1.95-5.4s.45-1.2.6-1.8l.3,1.65s.9,4.5,1.05,5.55Z" transform="translate(15.7 4.3)" fill="#265697"/>
  <path id="Shape_2_" d="M17,27.75,20,8.7h4.8l-3,19.05Z" transform="translate(8.5 4.35)" fill="#265697"/>
  <path id="Shape_3_" d="M18.3,8.6,13.5,21.65l-.45-2.7A14.477,14.477,0,0,0,6.3,11l4.35,16.65h5.1L23.4,8.6H18.3" transform="translate(3.15 4.3)" fill="#265697"/>
  <path id="Shape_4_" d="M10.85,8.6H2.9v.45c6.15,1.5,10.2,5.4,11.85,10.05l-1.8-8.85a1.951,1.951,0,0,0-2.1-1.65" transform="translate(1.45 4.3)" fill="#d97b16"/>
</svg>
