<svg xmlns="http://www.w3.org/2000/svg" width="52" height="58.004" viewBox="0 0 52 58.004">
  <g id="wishlist" transform="translate(-26.5)">
    <g id="Group_245" data-name="Group 245" transform="translate(26.5)">
      <g id="Group_244" data-name="Group 244">
        <path id="Path_257" data-name="Path 257" d="M51.877,53.473H35.563a4.537,4.537,0,0,1-4.532-4.532V9.063a4.537,4.537,0,0,1,4.532-4.532H63.42a4.537,4.537,0,0,1,4.532,4.532V30.475a2.266,2.266,0,1,0,4.532,0V9.063A9.073,9.073,0,0,0,63.42,0H35.563A9.073,9.073,0,0,0,26.5,9.063V48.941A9.073,9.073,0,0,0,35.563,58H51.877a2.266,2.266,0,1,0,0-4.532Z" transform="translate(-26.5)"/>
        <path id="Path_258" data-name="Path 258" d="M203.04,169H188.766a2.266,2.266,0,1,0,0,4.532H203.04a2.266,2.266,0,1,0,0-4.532Z" transform="translate(-168.374 -149.854)"/>
        <path id="Path_259" data-name="Path 259" d="M188.766,329a2.266,2.266,0,1,0,0,4.532h3.4a2.266,2.266,0,1,0,0-4.532Z" transform="translate(-168.374 -291.728)"/>
        <path id="Path_260" data-name="Path 260" d="M203.04,89H188.766a2.266,2.266,0,0,0,0,4.532H203.04a2.266,2.266,0,1,0,0-4.532Z" transform="translate(-168.374 -78.917)"/>
        <path id="Path_261" data-name="Path 261" d="M205.306,251.266A2.266,2.266,0,0,0,203.04,249H188.766a2.266,2.266,0,1,0,0,4.532H203.04A2.266,2.266,0,0,0,205.306,251.266Z" transform="translate(-168.374 -220.791)"/>
        <circle id="Ellipse_27" data-name="Ellipse 27" cx="2.266" cy="2.266" r="2.266" transform="translate(9.29 28.209)"/>
        <path id="Path_262" data-name="Path 262" d="M295.471,331.058a7.407,7.407,0,0,0-9.926-.29,7.407,7.407,0,0,0-9.926.291,7.558,7.558,0,0,0-2.08,5.376c0,4.444,3.775,7.259,6.809,9.521a20.166,20.166,0,0,1,3.433,2.932,2.266,2.266,0,0,0,3.53,0,20.166,20.166,0,0,1,3.433-2.932c3.034-2.262,6.809-5.077,6.809-9.521A7.559,7.559,0,0,0,295.471,331.058Zm-7.437,11.264c-.843.629-1.7,1.269-2.489,1.945-.787-.676-1.646-1.317-2.489-1.945-2.451-1.827-4.986-3.717-4.986-5.888,0-1.791,1-2.9,2.6-2.9a2.274,2.274,0,0,1,2.139.967,3.238,3.238,0,0,1,.473,1.263,2.261,2.261,0,0,0,4.516,0,3.239,3.239,0,0,1,.473-1.263,2.274,2.274,0,0,1,2.139-.967c1.606,0,2.6,1.112,2.6,2.9C293.019,338.605,290.485,340.495,288.034,342.322Z" transform="translate(-245.551 -291.728)"/>
        <circle id="Ellipse_28" data-name="Ellipse 28" cx="2.266" cy="2.266" r="2.266" transform="translate(9.29 10.083)"/>
        <circle id="Ellipse_29" data-name="Ellipse 29" cx="2.266" cy="2.266" r="2.266" transform="translate(9.29 19.146)"/>
        <circle id="Ellipse_30" data-name="Ellipse 30" cx="2.266" cy="2.266" r="2.266" transform="translate(9.29 37.272)"/>
      </g>
    </g>
  </g>
</svg>
